DBRep_DrawableShape

CASCADE Topology V3, (c) Open Cascade
Locations 9
1
              1               0               0 -17.467830261099 
              0              -1 -1.22464679914735e-16 -2.34250165195219e-06 
              0 1.22464679914735e-16              -1 755.270086261799 
1
              1              -0               0              -0 
              0               1               0               0 
             -0               0               1              -0 
2  2 -1 0
1
              1              -0               0              -0 
              0               1               0               0 
             -0               0               1              -0 
2  2 1 4 -1 0
2  4 -1 0
2  2 1 1 1 0
2  1 -1 2 -1 0
1
              1              -0               0 6.92982373913894 
              0               1               0 1.61831749097449e-12 
             -0               0               1 619.079068614291 
Curve2ds 104
1 4 0 0 -1 
1 0 0 0 1 
1 0 0 1 0 
1 0 0 1 0 
1 -1 -8 1 0 
1 0 0 0 -1 
1 0 0 0 1 
1 0 0 1 0 
1 0 0 1 0 
8 -5.5 0
1 0 8 -1 0 
8 -5.5 0
1 5 0 0 -1 
8 4 8
1 5.5 4 0 1 
8 4 8
1 5 4 0 -1 
8 -5.5 0
1 0 12 -1 0 
8 -5.5 0
1 5 0 0 -1 
1 0 20 1 0 
1 12 0 0 1 
1 4 0 0 -1 
8 -5 -3.5
1 7 9.9999999999999982 -1 0 
8 -5 -3.5
1 2 -7 0 -1 
8 8.0000000000000018 20.0000006
1 11.127718676730986 -10.000000000000002 0 1 
8 8.0000000000000018 20.0000006
1 5.3206345592948994 0 0 1 
1 0 0 1 0 
1 4 0 0 1 
2 6 4 1 0 -0 1 1.7
1 0 4.0999999999999996 1 0 
2 6 16 1 0 -0 1 1.7
1 0 4.0999999999999996 1 0 
1 0 5.5 1 0 
1 0 0 1 0 
8 -5.5 0
1 0 8 -1 0 
8 -5.5 0
1 1 0 0 -1 
8 4 8
1 5.5 4 0 1 
8 4 8
1 1 4 0 -1 
8 -5.5 0
1 0 12 -1 0 
8 -5.5 0
1 1 0 0 -1 
1 0 20 1 0 
1 12 0 0 1 
1 0 0 0 -1 
8 -5 -3.5
1 7 10 -1 0 
8 -5 -3.5
1 -2 -7 0 -1 
8 8 20.0000006
1 11.127718676730986 -10 0 1 
8 8 20.0000006
1 4.10414340147448 0 0 1 
1 0 0 1 0 
1 0 0 0 1 
2 6 4 1 0 -0 1 1.7
1 0 0.10000000000000009 1 0 
2 6 16 1 0 -0 1 1.7
1 0 0.10000000000000009 1 0 
2 2 14 1 0 -0 1 3.5
1 0 10 1 0 
1 0 5.5 1 0 
1 0 -4 1 0 
1 0 -4 1 0 
1 0 0 1 0 
1 -1 -12 1 0 
1 0 -20 1 0 
1 0 -20 1 0 
8 -1.0000000000000013 2.9999999999999987
1 1.0000000000000013 -10 1 1.2246467991473532e-16 
8 -1.0000000000000013 2.9999999999999987
1 -1 -2 1 0 
1 0 20 1 0 
2 0 0 1 0 -0 1 3.5
7 0 0  8 16 3  1.5713264051304205 60.435720070000954  1.7674756559033635 59.854785376624491  1.9636249066736582 59.273850518264226  2.1597741574478277 58.726975705794757  2.3559234082094918 58.248214362014551  2.5520726589911646 57.867448483390035  2.7482219097660163 57.606116357193969  2.9443711605410381 57.474956969854283  3.3366696620869241 57.473095033110191  3.5328189128576923 57.6023924832989  3.7289681636193563 57.861971837148303  3.9251174144083052 58.24120325257536  4.1212666651717882 58.71874421465327  4.3174159159502778 59.264781439713261  4.5135651667245629 59.845295923306239  4.7097144174975059 60.426227633264361 
 1.5707961113877749 9 3.1399901175713181 7 4.709184123754862 9
7 0 0  8 16 3  3.1447972951445271 -6.379706753989467e-07  3.3409465459174701 0.58093405540579035  3.5370957966918226 1.1618689137403635  3.7332450474598531 1.7087437262489402  3.9293942982488019 2.1875050697035476  4.125543549006828 2.5682709486736712  4.3216927997816796 2.8296030748028898  4.5178420505551422 2.9607624621759983  4.9101405521010282 2.9626243989200858  5.1062898028744925 2.8333269487263806  5.3024390536454789 2.5737475948435531  5.4985883044257875 2.1945161795210879  5.6947375551910895 1.7169752173158486  5.8908868059662822 1.1709379923522647  6.087036056738671 0.59042350872403115  6.283185307511614 0.009491798765910886 
 1.5707961113877749 9 3.1399901175713181 7 4.709184123754862 9
1 0 0 1 0 
2 0 0 1 0 -0 1 3.5
7 0 0  5 6 2  4.7097144174975059 60.426227633264361  4.7103553887440528 60.428125986282907  4.7109963599906095 60.430024344176218  4.7116373312371564 60.431922705318925  4.7122783024836927 60.433821068086523  4.7129192737302397 60.435719430854206 
 4.709184123754862 6 4.7123889799875958 6
7 0 0  5 6 2  3.3202799240176061e-10 0.009491798765910886  0.00064097157857475467 0.0075934457473646518  0.0012819428251219719 0.0056950878542539052  0.0019229140716654179 0.0037967267114380823  0.0025638853182153405 0.0018983639437530854  0.0032048565647621028 1.1760725726617238e-09 
 4.709184123754862 6 4.7123889799875958 6
1 6.2831853071795862 -0 0 1 
1 0 -0 0 1 
1 6.2831853071795862 -0 0 1 
1 0 -0 0 1 
1 6.2831853071795862 -0 0 1 
1 0 -0 0 1 
1 0 60.435719432030275 1 0 
2 0 0 1 0 -0 1 3.5
1 6.2831853071795862 -0 0 1 
1 0 -0 0 1 
1 0 0 1 0 
2 0 0 1 0 -0 1 3.5
7 0 0  8 16 3  2.9782216205802472 97.082439773253896  3.1745711717966807 96.37357550854648  3.370920723009931 95.664711049917969  3.5672702742467663 94.997492054011673  3.7636198254222109 94.413555829552934  3.9599693766722339 93.949428928433917  4.156318927873599 93.631292369347648  4.3526684790952794 93.472223385454171  4.7453675815281455 93.47222327585304  4.9417171327404503 93.631292150384979  5.1380666839722835 93.949428605672438  5.3344162351640989 94.413555417850148  5.5307657863886561 94.997491569258273  5.7271153376068469 95.664710516488412  5.9234648888267483 96.373574950352619  6.1198144400431822 97.082439215060049 
 1.5707961665507681 9 3.1415925762822354 7 4.7123889860137034 9
7 0 0  8 16 3  2.936897641842442 -5.7851590185009627e-07  3.1332471930588754 0.70886368619151685  3.3295967442727488 1.4177281446968664  3.5259462954854826 2.0849471409783291  3.7222958467100398 2.6688833646403509  3.9186453979127691 3.133010266450583  4.1149949491368716 3.4511468252367195  4.3113445003574604 3.6102158092838588  4.7040436027903265 3.6102159188849887  4.9003931539955374 3.4511470444344923  5.0967427052346466 3.133010588828256  5.2930922563973581 2.6688837772871921  5.4894418076692091 2.0849476253997636  5.6857913588646625 1.4177286782910414  5.8821409100889186 0.70886424438547213  6.0784904613053525 -2.0321955673807679e-08 
 1.5707961665507681 9 3.1415925762822354 7 4.7123889860137034 9
8 -3.5000004921201016 3.5000004921201016
1 0 0 0.00053029371779075905 -0.9999998593942766 
8 -3.5000004921201016 3.5000004921201016
1 0 0 0.99999486445032271 0.0032048514756200879 
8 -3.5472327011011515 3.5472327011011515
1 0 0 0.98668463416947838 -0.16264511272658244 
8 -3.5472327011011515 3.5472327011011515
1 0 0 0.97912305714844916 -0.2032683914441071 
7 0 0  5 6 2  1.2523674715838924 31.286711544925044  1.3012051317853568 31.345302827654617  1.3503801105593982 31.40326280045355  1.3997485296139613 31.461158607345578  1.4491903412366811 31.519501509501563  1.4985702698044037 31.57874332531302 
 0 6 1 6
7 0 0  5 6 2  6.0398803950323305 -5.9999999999999997e-07  6.0876704685818943 0.068358422680906417  6.1360437243386032 0.13413411211964066  6.1848411752226431 0.19773830679405988  6.2339341203804022 0.25959436431955379  6.2831853071795862 0.32013478517536159 
 0 6 1 6
1 0 0 1 0 
2 0 0 1 0 -0 1 3.5
7 0 0  8 9 2  0 7.1601206612464932  0.19634955133382415 7.1601206612464932  0.39269910266727948 7.2852479619759833  0.58904865400154449 7.5355015005043242  0.78539820533478633 7.9005944261953118  0.98174775666848291 8.359932144285267  1.1780973080027479 8.8847820272885656  1.3744468593367527 9.4423912041904092  1.570796410670577 10.000000238196856 
 3.1415926535897931 9 4.7123890642603863 9
7 0 0  8 9 2  3.1415926535897931 2.8398793387535761  3.3379422049236172 2.8398793387535761  3.5342917562543334 2.7147520380117385  3.7306413075839373 2.4644984995238701  3.926990858897625 2.0994055737464805  4.1233404102567874 1.6400678557529318  4.319689961588665 1.1152179726993836  4.5160395129265574 0.55760879580966993  4.7123890642603818 -2.3819677608116763e-07 
 3.1415926535897931 9 4.7123890642603863 9
7 0 0  7 38 7  5.0308138122478248 32.686312332273154  5.1051993359075132 32.775553670854251  5.1791794706058258 32.866550985059156  5.2519544587757849 32.960430258735911  5.3228857634306497 33.058741767316803  5.3913956325985577 33.163237273204182  5.456913899634829 33.275614897406541  5.5425957120851885 33.442938448329038  5.5656871213152428 33.490291103297821  5.5882073885341157 33.538876913131439  5.6101302859444075 33.588708473948351  5.6314333985928666 33.639775853192717  5.6520990057040974 33.69204438548546  5.6926682426130117 33.800294280623532  5.7125267219628553 33.856311560074957  5.731699573614395 33.913494090464617  5.7501952373559799 33.97180322080284  5.7680220461853429 34.031171787339673  5.7851888532812064 34.091504035429367  5.8208852249472827 34.223708824467622  5.839189319691231 34.29587783519883  5.8566706290045909 34.369127703613302  5.8733766108362291 34.443379518805187  5.8893499939581364 34.518531283329068  5.904629276637559 34.594458867590866  5.9605752167451378 34.887422597220763  5.9967464448754724 35.109459990595099  6.0288339395277237 35.335678620985625  6.0576111313669738 35.564407635762706  6.083704228433386 35.794489455911425  6.1076373186524293 36.025769193989149  6.1575083200877812 36.549522084668574  6.1825567313544294 36.843525088346318  6.2055051934131855 37.139229345423871  6.2267223337541431 37.434875444104421  6.2465313149636108 37.729840224013969  6.2652447679731207 38.025081738468529  6.2831853071795862 38.323343202776023 
 0 8 0.19592836679993417 6 0.27055479314359149 6 0.34718455077039728 6 0.43616819077396796 6 0.68769692232690116 6 1 8
7 0 0  7 38 7  3.3848936286908566 -5.9999999999999997e-07  3.4576835795767122 0.10411795727350066  3.5295288700343135 0.21428388930900369  3.5995880387596797 0.33118020786498659  3.6671737822419939 0.45560343118873969  3.7316460920857915 0.58838256272775902  3.7923731054297516 0.73021287986353967  3.8703714002079943 0.938547342687168  3.8912348194291266 0.9972292043647375  3.9114184741804761 1.0571074909379006  3.9308973206278259 1.1181432597287986  3.9496513984440713 1.1802788419515946  3.9676668416567753 1.2434369766303297  4.0026705482670932 1.3733232066820773  4.0196097942219113 1.440070281082118  4.0357667746062331 1.507723434133309  4.0511542810722556 1.5762207376095179  4.0657864385695488 1.6454759617365204  4.0796793942362708 1.7153784682864419  4.108148243747368 1.8675596492047981  4.1224739374840729 1.9500213362401408  4.1358879558535486 2.033127404452292  4.1484448576008113 2.1168066913599732  4.1601954362007643 2.2009675685830534  4.1711872641961039 2.2854978780990396  4.2105178318865732 2.6098744593430663  4.2339463376116582 2.852032934024697  4.2529448546601314 3.0957362290025934  4.2684054998871783 3.3397666455473054  4.2810378793474282 3.5833486521173503  4.2913851199564865 3.8266581976494312  4.310379333537453 4.3747135910805763  4.3180201836129495 4.680357180399799  4.3233961721016776 4.9862098585283468  4.3269866349282129 5.2907897737131986  4.3291563917908773 5.5937036274576313  4.3301631303131423 5.8961052465062442  4.3301631303131423 6.2009047251669376 
 0 8 0.19592836679993417 6 0.27055479314359149 6 0.34718455077039728 6 0.43616819077396796 6 0.68769692232690116 6 1 8
7 0 0  8 135 20  0 38.323343202776023  0.02482249455322617 38.736017174723408  0.048147664863296552 39.15355831901865  0.070194016081234739 39.572930633563182  0.09114099166507704 39.991685905438018  0.11116029786694398 40.408595293550171  0.13044011055491261 40.824076407483588  0.14920121507674894 41.240413276469269  0.20134973901368819 42.42795341514946  0.23387979510160853 43.204769872608374  0.26544570945297269 43.984002799059994  0.29620427112232489 44.760398579982542  0.32634446792924449 45.532314500552133  0.35611717356464911 46.301670341830039  0.38584585648465558 47.07318720754251  0.471608386842162 49.298439539784141  0.52598631894073167 50.708802370904948  0.58082252724895722 52.108513712827737  0.63741220658026521 53.518397064539379  0.69689333682469901 54.947872249792177  0.76014683896359503 56.392382523567761  0.8279709611584638 57.831694106500748  0.92428938865876009 59.667425314279797  0.94788055902488899 60.102335845181031  0.97224942087444977 60.535877662945268  0.99771588529641952 60.971333538971145  1.0245577373163539 61.409774442606746  1.0530104259334436 61.849932262986961  1.0832731977192291 62.288142223104757  1.1383151244091383 63.022434677792504  1.1604521289409648 63.30052467199458  1.1834138594513146 63.573797868202611  1.2085945253594006 63.855948698053417  1.2370225764181284 64.150754861742882  1.2694256868873102 64.452076444897159  1.3063439461053505 64.744299173511479  1.3633296315429015 65.095336598331727  1.3763847389919246 65.167301219418761  1.3896745388554912 65.236219462750043  1.4055501186964383 65.31265958767483  1.425338625018582 65.397384583894734  1.4496990889864037 65.481759046894396  1.4792451489072422 65.548724315323369  1.5378403429042957 65.588170124538607  1.561402243095767 65.582741633650954  1.5849640442618778 65.555937316343872  1.6085258742787552 65.507695443482405  1.6320878273509682 65.437978022206977  1.6556499130789459 65.346770746991581  1.6792120055263984 65.234082950701634  1.742278411837902 64.87505087004341  1.7769073908549928 64.617614387960714  1.8071105968243453 64.351268602895573  1.8334418145270064 64.090712947717549  1.8566200593128421 63.841879408969767  1.87764582505737 63.60141005829373  1.8978688120478406 63.356580890709651  1.947122972162479 62.720586196514432  1.9737154977223055 62.346839077193636  1.9986336906668001 61.971443313470196  2.0220630031848708 61.597402076529121  2.044216796215411 61.225762572940148  2.0653381447386141 60.855678859301598  2.0856998085721106 60.484475419994183  2.1556964869286701 59.159408582924186  2.20211906936964 58.190314386570179  2.2452575772368264 57.217654233040079  2.2855128109215666 56.251111235814733  2.3233346588234585 55.293311204155479  2.3592312514173051 54.340454403146488  2.3937495631015651 53.383099148478507  2.4471083931719551 51.836652250863096  2.4662960377457361 51.265844891356345  2.4850078366283279 50.694933089124504  2.503260646167861 50.124017549364936  2.5210675153303641 49.553092137811376  2.5384359088784461 48.982089148512706  2.5553654189536523 48.410924423436775  2.5992712841494767 46.888611534969414  2.6247976543409575 45.959745339328364  2.648974696231587 45.035432365314776  2.6720182691403389 44.103097566632577  2.6937778468176976 43.157305689339921  2.7136700486076557 42.202700425701181  2.7305768830761408 41.253945180305955  2.747496604616984 39.998711638438266  2.7513992320295428 39.670045158373057  2.7547125637481651 39.341423578278246  2.7573584271865057 39.011737132128111  2.7592130094456211 38.680777021823047  2.7601075534560726 38.34907476666713  2.7598290294049828 38.017743772474873  2.7566641770654563 37.407429726756746  2.7541768757259217 37.129589410743073  2.7505015858971289 36.851899691683947  2.7453947463233899 36.572874804909027  2.7385201892865725 36.292307728005973  2.729442770846378 36.011007273340255  2.717615330226554 35.73041564672247  2.6907097993645435 35.239822982026325  2.6769726083528234 35.027117679250246  2.660755942478187 34.814346777961738  2.6416012433220022 34.602176191390939  2.6189488691658345 34.391438707616771  2.5921314461455838 34.182960125710309  2.5603429348444338 33.977367631963368  2.4999292916137157 33.653794730671009  2.4751566956953446 33.533751317777885  2.4481602970165666 33.415709862118284  2.4189039962912351 33.300337875698439  2.3873801989889154 33.188067900669658  2.353612994430387 33.079148432485894  2.317660251892987 32.973696443137896  2.2566488339520006 32.810213614890053  2.2329648080570723 32.750072339229163  2.2085949505855718 32.69134533686487  2.1835774251549034 32.634037399029857  2.1579554545606845 32.578142569509509  2.1317766108820972 32.523646265345405  2.1050921055872438 32.470527397538945  2.0244637115086688 32.316714068805247  1.969249722228346 32.219983853496373  1.9125958748092482 32.128100253087943  1.8547682417909503 32.04053533268371  1.7960086464475875 31.956761581916695  1.7365424999265855 31.876260385804237  1.6765915421506206 31.798508530811727  1.6017036961746198 31.704559157353131  1.5870081972709473 31.686274106083744  1.5722959936363718 31.668107413573864  1.5575695599347847 31.650050453402649  1.5428313494605985 31.632094482509981  1.5280837941387486 31.614230641196464  1.5133293045246909 31.596449953123447  1.4985702698044037 31.578743325313017 
 0 9 0.075411726174695728 7 0.21254003766141311 7 0.46676721110043584 7 0.54728973920609214 7 0.60420405608503769 7 0.62477363211476555 7 0.63860805809122179 7 0.66180340148478856 7 0.69346547886688836 7 0.77315793253503673 7 0.81973651774494349 7 0.89725559091290719 7 0.92500475228844681 7 0.94866615923320119 7 0.96671497595789213 7 0.97750914195316496 7 0.98402491609260234 7 0.9968692503947586 7 1 9
7 0 0  8 135 20  4.3301631303131423 6.2009047251669367  4.3301631303131423 6.6226246808388645  4.3282752027432458 7.0480277739225601  4.3248978145562624 7.474283919036008  4.320355364402606 7.8991183673155598  4.314891930435528 8.3214476356131133  4.3086678844498785 8.7418126127712377  4.3017585672159111 9.1626037248757335  4.2803265121052316 10.361744351165074  4.2643079253605194 11.144868504935761  4.2466950189253581 11.929493040140589  4.2279161256153461 12.710572160652056  4.2082160017575205 13.486618894519621  4.1876698575743081 14.259671784175191  4.1662126323951689 15.034548298172384  4.1018756204423656 17.268635015009732  4.058181632253107 18.683578097306469  4.0123238461364927 20.087279744878799  3.9634344956021881 21.500737165328438  3.9107237730117763 22.933514483885638  3.8534234688081721 24.381115831570192  3.7908368346704044 25.823367027565268  3.7005182691658032 27.662830691430386  3.6782951118528109 28.098624197118447  3.6552425993539082 28.533049009494782  3.6310534990120149 28.96939882671192  3.6054541929931876 29.408752356149822  3.5782068499945914 29.849846864082927  3.5491048418716087 30.289021490402074  3.4959488396817804 31.025014058157865  3.4745084442402887 31.303772865009353  3.4522192881532492 31.577728481265595  3.4277203207421989 31.860615470072851  3.3999901917396436 32.156237854125685  3.3682834441344665 32.458470778908904  3.3320261050051574 32.751709951430925  3.275822385036979 33.104288345060461  3.2629263184979598 33.176603638012203  3.2497883537965073 33.24587790814563  3.2340808039644875 33.322742020256072  3.2144772730056523 33.407993248530552  3.1902995359781401 33.493011854501084  3.1608981873146331 33.560754052356891  3.1023893649128125 33.601740318450233  3.0788164354608933 33.596931186291854  3.0551978297222382 33.570747192762724  3.0315331464388748 33.523127662468625  3.007821741039455 33.454035675888399  2.9840627583835158 33.36345803614396  2.9602551655057425 33.251405235770292  2.8963975596250173 32.894090440805691  2.861193302798489 32.637615441903904  2.8303832682251162 32.372126976578215  2.803445452608039 32.11233455738158  2.7796774269165425 31.864185087309529  2.7580724234779059 31.624346435151722  2.7372506213125951 31.380133760596351  2.6864064179135094 30.745673728684547  2.6588547435296328 30.37278055360991  2.6329458174999503 29.998209827804533  2.608500566842058 29.624968294346594  2.5853079075688123 29.254107965607915  2.5631219622951038 28.88478952243409  2.5416607779935902 28.514346487944554  2.4676136983946146 27.191979275800193  2.4180061949905634 26.224833248609105  2.3714015470936487 25.254152132546167  2.3273936515656768 24.289633714946181  2.2855045694001448 23.333925423639322  2.2451694508408808 22.383259162772735  2.2057302303849902 21.42824438213826  2.1434340310898019 19.885896894113081  2.1207383846441021 19.316670109792867  2.0982853177503009 18.747416026267452  2.0760310928371566 18.178245783489526  2.0539302201844367 17.609165633722533  2.0319354355945292 17.040122851688281  2.0099971303381148 16.471051872294431  1.9515567690056765 14.954735931378261  1.9159309098825212 14.029961698795391  1.8802743882085164 13.110227963999314  1.8438821950021302 12.183142864817075  1.8062128050563535 11.243524107097528  1.7669391314378107 10.296339666749541  1.7257794505778552 9.356750100428707  1.6667887447227669 8.1171980356785038  1.6509036609009839 7.7929817523798048  1.634518798300403 7.4691975897351099  1.6174914080107901 7.144813936306015  1.5996898850143919 6.8197114831787413  1.5809835955490954 6.4945253981242077  1.5612335388873162 6.1704886350308117  1.5224202670248057 5.5753821944950621  1.5037904663696469 5.3051641943915957  1.4840725529386907 5.0358853937263088  1.4629481643511093 4.766251893220292  1.4400867016981043 4.4962775991993187  1.4151230121166412 4.2270306111691696  1.3876224452945447 3.9602578157466373  1.3336893040221851 3.4977468104926355  1.3083587969640993 3.2985216307796827  1.2806919957182754 3.1007700938000706  1.2502937062357362 2.9053967423313116  1.2166828746943625 2.7134954226904302  1.1792760373645186 2.5261758420023654  1.1373471205017796 2.3443437047152313  1.0615594260396515 2.0631883477625963  1.0312162108298579 1.9600228244593807  0.99889053519901472 1.8597852595425657  0.96458694950626978 1.7630358505718489  0.92832350210280501 1.6700616273579629  0.89013789835643642 1.5809241537860972  0.85009281934514869 1.4955140853240865  0.78304081437613948 1.364173681964026  0.75720600503201874 1.3161085773121766  0.73080807961704342 1.2693746494805169  0.7038839867918143 1.223912936058851  0.67647498757590097 1.1796520175548155  0.64862612647605189 1.1365119039425935  0.62038570261440817 1.094407921211634  0.53546401761540596 0.97213038600283463  0.47783467729823625 0.89475015363091004  0.41916622192484504 0.8202416845661773  0.35969346858501527 0.74772257584184654  0.29963260921044382 0.67637626077200963  0.239190142159208 0.6054684812849277  0.17857508055732763 0.53433854515078771  0.10324111501101912 0.44486492965058511  0.088476309683795301 0.42727762422451065  0.073712835250724792 0.40962840840296427  0.058953104349984485 0.39190803714131878  0.044199533367355104 0.37410739934849452  0.029454542436221445 0.35621751788695893  0.014720555437572188 0.33822954957272711  0 0.32013478517536159 
 0 9 0.075411726174695728 7 0.21254003766141311 7 0.46676721110043584 7 0.54728973920609214 7 0.60420405608503769 7 0.62477363211476555 7 0.63860805809122179 7 0.66180340148478856 7 0.69346547886688836 7 0.77315793253503673 7 0.81973651774494349 7 0.89725559091290719 7 0.92500475228844681 7 0.94866615923320119 7 0.96671497595789213 7 0.97750914195316496 7 0.98402491609260234 7 0.9968692503947586 7 1 9
1 6.2831853071795862 -0 0 1 
1 0 -0 0 1 
1 0 97.082439194738001 1 0 
2 0 0 1 0 -0 1 3.5
8 3.2474285284483244 3.5
1 0 0 0 1 
8 3.2474285284483244 3.5
1 0 0 0 -1 
7 0 0  8 23 4  0 31.986512087687743  0.19634954084936207 31.841833478640851  0.39269908169886003 31.697155373145687  0.58904862254778223 31.56097395970005  0.78539816339736035 31.441798123863919  0.98174770424702373 31.347065172725479  1.1780972450960752 31.282136354131694  1.3744467859455345 31.249669982424621  1.8653206380689396 31.249669982424621  2.159844949343551 31.322719589370536  2.4543692606148397 31.468804961870774  2.7488935718938592 31.674466513562948  3.0434178831619647 31.912509382484131  3.3379421944387104 32.14897403177747  3.6324665057131984 32.354083298658495  4.2215151282612844 32.660992975307593  4.5160394395347794 32.762794497273717  4.8105637507851498 32.792663231477491  5.1050880620896351 32.739856744592544  5.3996123733377317 32.608874842757359  5.6941366846340316 32.420548701247753  5.9886609959055424 32.203530001258088  6.2831853071795853 31.986512087687743 
 1.5707963267948966 9 3.141592653589794 7 5.4977871437821388 7 7.8539816339744828 9
3 4.6647895328956032e-07 0.25257147155164716 -1 0 -0 -1 3.576721444016663 3.5
Curves 53
1 13 -10 8 0 1 0 
1 13 -2 3 0 0 1 
1 13 -10 4 0 1 0 
1 13 -10 4 0 0 1 
1 13 -2 8 -1 0 0 
1 18.5 -6 8 0 1 0 
1 13 2 8 -1 0 0 
1 13 10 8 1 0 0 
1 25 -10 8 0 1 0 
1 2.5321697389009898 -2.3425016522082842e-06 747.27008626179895 -1 -0 0 
1 6.6598884156319755 19.999997657498348 747.27008626179895 0 -1 0 
1 13 -10 8 1 0 0 
2 19 -6 8 0 0 1 1 0 -0 -0 1 0 1.7
2 19 6 8 0 0 1 1 0 -0 -0 1 0 1.7
1 18.5 -2 3 0 0 1 
1 13 -2 4 -1 0 0 
1 18.5 -6 4 0 1 0 
1 13 2 4 -1 0 0 
1 13 10 4 1 0 0 
1 25 -10 4 0 1 0 
1 2.5321697389009898 -2.3425016522082842e-06 751.27008626179895 -1 -0 0 
1 6.6598884156319755 19.999997657498348 751.27008626179895 0 -1 0 
1 13 -10 4 1 0 0 
2 19 -6 4 0 0 1 1 0 -0 -0 1 0 1.7
2 19 6 4 0 0 1 1 0 -0 -0 1 0 1.7
2 9.5321697389009898 9.9999976574983478 749.27008626179895 0 -1 0 0 -0 -1 1 0 0 3.5
1 18.5 2 3 0 0 1 
1 13 2 3 0 0 1 
1 13 10 4 0 0 1 
1 25 10 4 0 0 1 
1 7.5321697389009898 -2.3425016522082842e-06 750.27008626179895 0 0 -1 
2 9.5321697389009898 -2.3425016522082842e-06 749.27008626179895 0 -1 0 0 -0 -1 1 0 0 3.5
3 9.5321697389009898 19.999997657498348 749.27008626179895 0.64595910424368097 -0.76336920940018826 0.0020702136201104803 0.76336528907969126 0.64596242161578687 0.0024464849371891337 -0.0032048514756200883 -2.1684043449710089e-19 0.99999486445032271 4.5849373499752497 3.5
2 9.5321697389009898 19.999997657498348 749.27008626179895 0 -1 0 0 -0 -1 1 0 0 3.5
3 9.5321697389009898 19.999997657498348 749.27008626179895 0.64595910424368097 -0.76336920940018826 0.0020702136201104803 0.76336528907969126 0.64596242161578687 0.0024464849371891337 -0.0032048514756200883 -2.1684043449710089e-19 0.99999486445032271 4.5849373499752497 3.5
1 9.5321697389009898 19.999997657498348 745.77008626179895 0 -1 0 
1 20.699999999999999 -6 3.8999999999999999 0 0 1 
1 20.699999999999999 6 3.8999999999999999 0 0 1 
2 9.5321697389009898 19.999997657498348 749.27008626179895 0.98621058142270501 -0.16546509972053677 0.0031606746689464772 0.1654659262136807 0.9862155075145842 2.1684043449710089e-19 -0.0031171063727235405 0.00052298396155734729 0.99999500505534378 3.5
1 -49.491045519113179 33.451754276302665 749.07906861429058 0.98621058142270501 -0.16546509972053677 0.0031606746689464772 
2 -50.070176260861061 30.00000000000162 749.07906861429058 0.98621058142270501 -0.16546509972053677 0.0031606746689464772 0.1654659262136807 0.9862155075145842 2.1684043449710089e-19 -0.0031171063727235405 0.00052298396155734729 0.99999500505534378 3.5
3 -50.070176260861061 30.00000000000162 749.07906861429058 0.70842124447050181 0.029124823886396908 0.70518868752728314 -0.68679393393435195 0.25869442113447072 0.67925789563675909 -0.16264511272658247 -0.96552003661627217 0.20326737612974152 5.0282858495999356 3.5
1 9.5321697389009898 19.999997657498348 749.27008626179895 0.0032048514756200879 0 -0.99999486445032271 
1 -50.070176260861061 30.00000000000162 749.07906861429058 0.16264511272658244 0.96552003661627206 -0.20326737612974149 
7 0 0  5 6 2  -49.226985978976749 13.324050122124351 653.37926797542832  -49.38932478704055 13.377564562300417 653.43785925815791  -49.556051864529309 13.421537910026837 653.49581923095661  -49.725971808678061 13.455275345390218 653.55371503784897  -49.897797107063916 13.478403407326539 653.61205794000477  -50.070176260861061 13.490875368550004 653.67129975581622 
 0 6 1 6
2 -50.070176260861061 10.000000000001618 654.07906861429058 0 0.2060104810498419 0.97854978498674905 0 0.97854978498674905 -0.2060104810498419 -1 0 0 3.5
3 -50.070176260861061 10.000000000001616 654.07906861429058 0 0.77653412064436744 0.63007520144430307 0 0.63007520144430307 -0.77653412064436744 -1 0 0 4.5072069686979148 3.5
7 0 0  7 38 7  -49.226999352793761 6.6759463822208129 654.77886876277637  -48.979737849807286 6.7574541992380226 654.8681101013575  -48.740897071527399 6.8599758266730566 654.95910741556247  -48.515233663400934 6.9814782636238109 655.05298668923899  -48.306296658169529 7.118464098501132 655.15129819781998  -48.116331683807118 7.2666365437348173 655.25579370370747  -47.946302978163814 7.4213044857387294 655.36817132790975  -47.738788745878267 7.6377985098190333 655.53549487883208  -47.684509646407058 7.6977223121246734 655.5828475338011  -47.633176879922715 7.7575962211811742 655.63143334363485  -47.584749157194899 7.8171713729181391 655.68126490445161  -47.539160064068312 7.8762150156561104 655.73233228369588  -47.496321546156665 7.9345167757456778 655.78460081598882  -47.414854237039421 8.0508133754014537 655.89285071112681  -47.376389104513294 8.1087297376006262 655.94886799057815  -47.340570143208417 8.1655093741209654 656.00605052096762  -47.307239288647381 8.2210352700010727 656.06435965130606  -47.276242683817195 8.2752078832124969 656.12372821784288  -47.24743109836156 8.3279449968710111 656.1840604659327  -47.189573745038267 8.4386782610937612 656.31626525497086  -47.161237379893272 8.4961545459957915 656.38843426570202  -47.135365957642698 8.5516246617231069 656.46168413411647  -47.111710302906438 8.6051180037152637 656.53593594930851  -47.090052562589015 8.656674284506078 656.61108771383238  -47.070201408848938 8.7063386909474669 656.68701529809402  -47.000501527767625 8.8893244614465114 656.97997902772397  -46.961954505673106 9.0101136126068564 657.20201642109816  -46.932231068934186 9.1185406340645052 657.4282350514892  -46.908949546218544 9.2166312176664213 657.65696406626569  -46.89047241766221 9.3061193390487595 657.88704588641463  -46.875684286208653 9.3885947911603367 658.1183256244924  -46.849030643596336 9.561096280839454 658.64207851517176  -46.838722613852497 9.6482132721373937 658.93608151884962  -46.83160181839677 9.7282642523670564 659.23178577592694  -46.826894735404238 9.8024133384284067 659.52743187460794  -46.824061933078653 9.871711423226996 659.82239665451698  -46.822747732412708 9.9372085692518581 660.11763816897178  -46.822747732412708 10.000000456474488 660.41589963327931 
 0 8 0.19592836679993417 6 0.27055479314359149 6 0.34718455077039728 6 0.43616819077396796 6 0.68769692232690116 6 1 8
7 0 0  8 135 20  -46.822747732412715 10.000000456474488 660.41589963327931  -46.822747732412715 10.086879187410778 660.82857360522655  -46.825212282499294 10.168517247886694 661.24611474952178  -46.829621510719811 10.245598068266375 661.66548706406638  -46.835615945240932 10.31870875150832 662.08424233594121  -46.842939276897127 10.388426933459531 662.50115172405344  -46.85143053935488 10.455394509001714 662.91663283798687  -46.861040951702947 10.520365759048845 663.33296970697256  -46.891507003665311 10.700324947201732 664.52050984565267  -46.914976272414577 10.811826926288006 665.29732630311241  -46.941794420363195 10.919133712135523 666.07655922956235  -46.971637777012532 11.022707063916224 666.85295501048574  -47.004324194871664 11.123131933855088 667.62487093105642  -47.039881267156183 11.221184695506532 668.3942267723329  -47.078614330479354 11.317824686048153 669.16574363804568  -47.19988559187869 11.59240550005709 671.39099597028735  -47.288133711398949 11.761488339830263 672.80135880140961  -47.387070488596152 11.926598457912789 674.20107014332689  -47.499243219021338 12.090747241381894 675.61095349504785  -47.627874412721063 12.255615956510837 677.04042868029205  -47.776629899545519 12.42102564700105 678.48493895407205  -47.949458027008554 12.585158829963285 679.92425053700401  -48.213763507227135 12.794416557918595 681.75998174478286  -48.279832217246629 12.843986362008732 682.19489227568397  -48.349401548511551 12.893413749239309 682.6284340934485  -48.423487798467796 12.943093567997382 683.06388996947464  -48.503075559520212 12.993174891060612 683.50233087311017  -48.589091912580898 13.043551781531875 683.94248869349008  -48.682393416451788 13.093861668747452 684.38069865360808  -48.855417210891687 13.178570194327234 685.11499110829573  -48.925918522039986 13.210771967671072 685.39308110249601  -48.999776911822636 13.242538258558774 685.66635429871224  -49.081577518585988 13.275489761245975 685.94850512854669  -49.174941717586506 13.310147589945371 686.24331129225402  -49.282717939143836 13.345945547112633 686.54463287539772  -49.407196689702211 13.381306292986356 686.83685560401466  -49.601725748777199 13.425337048136019 687.18789302883488  -49.646492542017633 13.434532349509833 687.25985764992197  -49.692151831084779 13.443436449597147 687.3287758932529  -49.74681421388231 13.453453630709179 687.40521601817818  -49.815158175941747 13.464829757919276 687.48994101439848  -49.899650490803438 13.476741740908878 687.57431547739714  -50.002619688719271 13.487485606080286 687.64128074582652  -50.207375406811899 13.499070346599172 687.68072655504193  -50.289835820745616 13.501511564298374 687.67529806415416  -50.372351678548583 13.50173177352357 687.64849374684718  -50.454853624837931 13.499729661902558 687.6002518739856  -50.537272160379331 13.495506483659781 687.53053445271007  -50.619537590449035 13.489066130788297 687.43932717749476  -50.701579973196139 13.480415204221732 687.3266393812047  -50.920392819650338 13.451367994571788 686.96760730054666  -51.039718732761123 13.429230360154206 686.71017081846492  -51.142896768701064 13.405659449696181 686.44382503339534  -51.232103182936868 13.382234724651525 686.1832693782261  -51.310063326498863 13.359646241878423 685.93443583946907  -51.38032227586929 13.337669589273302 685.6939664887982  -51.447453855999399 13.315170028912688 685.4491373212129  -51.609515765107588 13.256398452861516 684.81314262701756  -51.695911394647268 13.221628319870856 684.43939550769687  -51.775830407587904 13.186546211949146 684.06399974397334  -51.850022342377066 13.151482163573947 683.68995850703243  -51.919305736768358 13.116568539896988 683.31831900344343  -51.984552917592772 13.081749414535702 682.94823528980476  -52.046675034910272 13.046790082697544 682.57703185049729  -52.25745507021243 12.921925835474081 681.25196501342748  -52.392130787275484 12.830478499287899 680.28287081707276  -52.512536902026881 12.738809707191464 679.31021066354413  -52.620641824400359 12.647998912557284 678.34366766631797  -52.718410290266682 12.55842445899207 677.38586763465787  -52.807723942444255 12.469844290550446 676.43301083365031  -52.890283552583789 12.381523531664705 675.4756555789819  -53.012606487225867 12.240403484169887 673.92920868136628  -53.055422399567021 12.188642207987671 673.35840132185945  -53.096052918931036 12.137244521078445 672.78748951962757  -53.134609748923744 12.08627156063946 672.21657397986826  -53.17119271419628 12.035782813684413 671.64564856831453  -53.205887632457724 11.985843948550647 671.07464557901574  -53.238764729242341 11.936536454936713 670.50348085394  -53.321657625668323 11.807140168456428 668.98116796547265  -53.367316975007853 11.730287687569547 668.05230176983139  -53.408451044681605 11.656274594958191 667.12798879581828  -53.445712428067118 11.584680750201068 666.19565399713576  -53.479089892556857 11.516168121723176 665.24986211984299  -53.50796472447459 11.452794332189349 664.29525685620456  -53.531501760960644 11.398499400799603 663.34650161080924  -53.554483958396766 11.343921826929938 662.09126806894164  -53.559711356250794 11.331302226775245 661.76260158887635  -53.564097719623973 11.320566918116935 661.43398000878153  -53.567564524517685 11.311979721840212 661.10429356263137  -53.569976123174676 11.305953288899818 660.77333345232626  -53.571138279441278 11.303046084426338 660.44163119717041  -53.570784065061318 11.303954339345868 660.11030020297835  -53.56663969562873 11.314226815121501 659.49998615725997  -53.563374890463635 11.322297187967866 659.2221458412464  -53.55852617368982 11.334211213898282 658.94445612218692  -53.551733816853456 11.350745530191768 658.66543123541237  -53.542467481739386 11.372950996309211 658.38486415850957  -53.529987840111033 11.402170438781852 658.10356370384329  -53.513227331965098 11.440032980695209 657.82297207722559  -53.473181622791081 11.525263310778415 657.33237941252946  -53.452244984761322 11.568550179186563 657.11967410975342  -53.426820417903691 11.619301882085109 656.90690320846477  -53.395761107285246 11.67874609258317 656.69473262189433  -53.357504892311162 11.748236730737537 656.48399513812024  -53.309927135834791 11.829237904688837 656.27551655621346  -53.250022638356484 11.923166879394655 656.06992406246661  -53.127326875872349 12.095375768251877 655.74635116117418  -53.075349997463334 12.164803947340349 655.62630774828108  -53.016670408868372 12.238935496670107 655.50826629262156  -52.950622180243506 12.317319001488068 655.3928943062017  -52.876552146165253 12.39929316428282 655.28062433117293  -52.793870053421394 12.483976470255037 655.17170486298926  -52.702113520736084 12.570282530753953 655.06625287364113  -52.540008584175688 12.70928362878044 654.90277004539325  -52.475708214342021 12.76164080818209 654.84262876973241  -52.408110105554577 12.813741884060095 654.78390176736798  -52.337234056169081 12.865277887328958 654.72659382953316  -52.263137422213305 12.915930431082028 654.67069900001275  -52.185916281329632 12.965380503030906 654.61620269584864  -52.105706596717759 13.013317257944859 654.56308382804218  -51.859028350456157 13.150380500590387 654.40927049930849  -51.684545100372254 13.234235938101426 654.31254028399962  -51.500184154761186 13.309009844168141 654.22065668359107  -51.307212076229398 13.372926617928801 654.13309176318694  -51.107146740099871 13.424528219345223 654.04931801241992  -50.901706525926649 13.462713891355126 653.96881681630737  -50.692756832567468 13.486761817586032 653.89106496131501  -50.430921637214681 13.49870549969785 653.79711558785641  -50.379501487753643 13.50018856774609 653.77883053658684  -50.328000405446694 13.50080891107649 653.76066384407716  -50.276443945180041 13.500562628613929 653.74260688390586  -50.224857685800423 13.499447023546665 653.72465091301319  -50.17326723011525 13.497460603326344 653.70678707169952  -50.12169820489256 13.494603079667989 653.68900638362663  -50.070176260861054 13.490875368550006 653.67129975581622 
 0 9 0.075411726174695728 7 0.21254003766141311 7 0.46676721110043584 7 0.54728973920609214 7 0.60420405608503769 7 0.62477363211476555 7 0.63860805809122179 7 0.66180340148478856 7 0.69346547886688836 7 0.77315793253503673 7 0.81973651774494349 7 0.89725559091290719 7 0.92500475228844681 7 0.94866615923320119 7 0.96671497595789213 7 0.97750914195316496 7 0.98402491609260234 7 0.9968692503947586 7 1 9
1 -50.070176260861061 13.424924247455241 653.35803193061611 0 0.2060104810498419 0.97854978498674905 
2 -50.070176260861061 30.00000000000162 749.07906861429058 0 0.2060104810498419 0.97854978498674905 0 0.97854978498674905 -0.2060104810498419 -1 0 0 3.5
1 -50.070176260861061 10.000000000001618 654.07906861429058 1 0 0 
3 -50.322747732412708 10.000000456474488 654.07906851819098 0 0.2060104810498419 0.97854978498674905 0 -0.97854978498674905 0.2060104810498419 1 0 -0 3.576721444016663 3.5
Polygon3D 0
PolygonOnTriangulations 0
Surfaces 24
1 13 -10 4 1 0 0 0 0 1 0 -1 0 
1 13 -10 8 0 0 1 1 0 0 0 1 0 
1 13 -2 3 1 0 0 0 0 1 0 -1 0 
1 13 -2 3 0 1 0 0 0 1 1 0 0 
1 13 -10 4 0 0 1 1 0 0 0 1 0 
1 13 -10 4 0 1 0 0 0 1 1 0 0 
1 18.5 -2 3 1 0 0 0 0 1 0 -1 0 
1 13 2 3 0 1 0 0 0 1 1 0 0 
1 25 -10 4 1 0 0 0 0 1 0 -1 0 
1 9.5321697389009898 -2.3425016522082842e-06 749.27008626179895 0 -1 0 0 -0 -1 1 0 0 
2 9.5321697389009898 19.999997657498348 749.27008626179895 0 -1 0 0 -0 -1 1 0 0 3.5
2 19 -6 3.8999999999999999 0 0 1 1 0 -0 -0 1 0 1.7
2 19 6 3.8999999999999999 0 0 1 1 0 -0 -0 1 0 1.7
1 13 10 4 0 1 0 0 0 1 1 0 0 
2 -50.070176260861061 30.00000000000162 749.07906861429058 0.98621058142270501 -0.16546509972053677 0.0031606746689464772 0.1654659262136807 0.9862155075145842 1.0842021724855044e-19 -0.0031171063727235405 0.00052298396155734739 0.99999500505534378 3.5
1 9.5321697389009898 19.999997657498348 749.27008626179895 0 -1 0 0 -0 -1 1 0 0 
1 9.5321697389009898 19.999997657498348 749.27008626179895 0.98621058142270501 -0.16546509972053677 0.0031606746689464772 0.1654659262136807 0.9862155075145842 1.0842021724855044e-19 -0.0031171063727235405 0.00052298396155734739 0.99999500505534378 
1 -50.070176260861061 30.00000000000162 749.07906861429058 0.98621058142270501 -0.16546509972053677 0.0031606746689464772 0.1654659262136807 0.9862155075145842 1.0842021724855044e-19 -0.0031171063727235405 0.00052298396155734739 0.99999500505534378 
2 -50.070176260861061 10.000000000001618 654.07906861429058 0 0.2060104810498419 0.97854978498674905 0 0.97854978498674905 -0.2060104810498419 -1 0 0 3.5
1 -50.070176260861061 30.00000000000162 749.07906861429058 0 0.2060104810498419 0.97854978498674905 0 0.97854978498674905 -0.2060104810498419 -1 0 0 
2 -57.25257147155164 10.00000045647287 3.0134878162126597 0 0 1 1 0 -0 -0 1 0 3.5
1 -50.070176260861061 10.000000000001618 654.07906861429058 0 0.2060104810498419 0.97854978498674905 0 0.97854978498674905 -0.2060104810498419 -1 0 0 
2 -50.070176260861061 1.6183174909744876e-12 654.07906861429058 0 1 0 0 -0 1 1 0 -0 3.5
1 -50.070176260861061 10.000000000001618 654.07906861429058 0 1 0 0 -0 1 1 0 -0 
Triangulations 0

TShapes 157
Ve
1e-07
13 -10 8
0 0

0101101
*
Ve
1.5e-07
13 -2 8
0 0

0101101
*
Ed
 1e-07 1 1 0
1  1 0 0 8
2  1 1 0 0 8
2  2 2 0 0 8
0

0101000
+157 3 -156 3 *
Ve
1.5e-07
13 -2 4
0 0

0101101
*
Ed
 1e-07 1 1 0
1  2 0 1 5
2  3 3 0 1 5
2  4 4 0 1 5
2  5 1 5 1 5
0

0101000
+154 6 -156 6 *
Ve
1e-07
13 -10 4
0 0

0101101
*
Ed
 1e-07 1 1 0
1  3 0 0 8
2  6 1 0 0 8
2  7 5 0 0 8
0

0101000
+152 3 -154 3 *
Ed
 1e-07 1 1 0
1  4 0 0 4
2  8 1 0 0 4
2  9 6 0 0 4
0

0101000
-157 3 +152 3 *
Wi

0101100
-155 2 +153 4 +151 2 -150 2 *
Fa
0  1e-07 1 2

0101000
+149 0 *
Ve
1.5e-07
18.5 -2 8
0 0

0101101
*
Ed
 1.5e-07 1 1 0
1  5 0 -5.5 0
2  10 2 2 -5.5 0
2  11 4 4 -5.5 0
0

0101000
+147 0 -156 0 *
Ve
1.5e-07
18.5 2 8
0 0

0101101
*
Ed
 1.5e-07 1 1 0
1  6 0 4 8
2  12 2 2 4 8
2  13 7 4 4 8
0

0101000
+147 0 -145 0 *
Ve
1.5e-07
13 2 8
0 0

0101101
*
Ed
 1.5e-07 1 1 0
1  7 0 -5.5 0
2  14 2 2 -5.5 0
2  15 8 4 -5.5 0
0

0101000
+145 0 -143 0 *
Ve
1e-07
13 10 8
0 0

0101101
*
Ed
 1e-07 1 1 0
1  1 0 12 20
2  1 1 0 12 20
2  2 2 0 12 20
0

0101000
+143 3 -141 3 *
Ve
1e-07
25 10 8
0 0

0101101
*
Ed
 1e-07 1 1 0
1  8 0 0 12
2  16 2 0 0 12
0

0101000
-139 3 +141 3 *
Ve
1.5e-07
7.53216973890099 -2.34250165220828e-06 747.270086261799
0 0

0101101
*
Ed
 1e-07 1 1 0
1  9 0 10 20
2  17 2 0 10 20
2  18 9 0 10 20
0

0101000
+137 8 -139 3 *
Ve
1.5e-07
6.65988841563198 -2.34250165220828e-06 747.270086261799
0 0

0101101
*
Ed
 1.5e-07 1 1 0
1  10 0 -5 -4.12771867673099
2  19 2 7 -5 -4.12771867673099
2  20 10 0 -5 -4.12771867673099
0

0101000
+137 0 -135 0 *
Ve
1.00040529357648e-07
6.65988841559145 9.99999765749835 747.270086261799
0 0

0101101
*
Ed
 1e-07 1 1 0
1  11 0 10 20
2  21 2 7 10 20
2  22 11 0 10 20
0

0101000
+133 0 -135 0 *
Ed
 1e-07 1 1 0
1  12 0 0 11.1277186766905
2  23 2 0 0 11.1277186766905
2  24 6 0 0 11.1277186766905
0

0101000
+157 3 -133 8 *
Wi

0101100
-155 7 +146 1 -144 1 -142 1 -140 7 -138 7 +136 7 -134 0 +132 0 +131 7 
*
Ve
1e-07
20.7 -6 8
0 0

0101101
*
Ed
 1e-07 1 1 0
1  13 0 0 6.28318530717959
2  25 2 2 0 6.28318530717959
2  26 12 0 0 6.28318530717959
0

0101100
+129 0 -129 0 *
Wi

0101100
-128 1 *
Ve
1e-07
20.7 6 8
0 0

0101101
*
Ed
 1e-07 1 1 0
1  14 0 0 6.28318530717959
2  27 2 2 0 6.28318530717959
2  28 13 0 0 6.28318530717959
0

0101100
+126 0 -126 0 *
Wi

0101100
-125 1 *
Fa
0  1e-07 2 7

0101000
+130 0 +127 0 +124 0 *
Ve
1.5e-07
18.5 -2 4
0 0

0101101
*
Ed
 1e-07 1 1 0
1  15 0 1 5
2  29 4 0 1 5
2  30 7 0 1 5
0

0101000
+122 6 -147 6 *
Ed
 1.5e-07 1 1 0
1  16 0 -5.5 0
2  31 5 2 -5.5 0
2  32 4 4 -5.5 0
0

0101000
+122 0 -154 0 *
Wi

0101100
-121 4 -146 0 +153 4 +120 0 *
Fa
0  1e-07 4 4

0101000
+119 0 *
Ve
1.5e-07
18.5 2 4
0 0

0101101
*
Ed
 1.5e-07 1 1 0
1  17 0 4 8
2  33 5 2 4 8
2  34 7 4 4 8
0

0101000
+122 0 -117 0 *
Ve
1.5e-07
13 2 4
0 0

0101101
*
Ed
 1.5e-07 1 1 0
1  18 0 -5.5 0
2  35 5 2 -5.5 0
2  36 8 4 -5.5 0
0

0101000
+117 0 -115 0 *
Ve
1e-07
13 10 4
0 0

0101101
*
Ed
 1e-07 1 1 0
1  3 0 12 20
2  6 1 0 12 20
2  7 5 0 12 20
0

0101000
+115 3 -113 3 *
Ve
1e-07
25 10 4
0 0

0101101
*
Ed
 1e-07 1 1 0
1  19 0 0 12
2  37 5 0 0 12
0

0101000
-111 3 +113 3 *
Ve
1.5e-07
7.53216973890099 -2.34250165220828e-06 751.270086261799
0 0

0101101
*
Ed
 1e-07 1 1 0
1  20 0 10 20
2  38 5 0 10 20
2  39 9 0 10 20
0

0101000
+109 8 -111 3 *
Ve
1.5e-07
6.65988841563198 -2.34250165220828e-06 751.270086261799
0 0

0101101
*
Ed
 1.5e-07 1 1 0
1  21 0 -5 -4.12771867673099
2  40 5 7 -5 -4.12771867673099
2  41 10 0 -5 -4.12771867673099
0

0101000
+109 0 -107 0 *
Ve
1.00000001776357e-07
6.65988841563198 9.99999765749835 751.270086261799
0 0

0101101
*
Ed
 1e-07 1 1 0
1  22 0 10 20
2  42 5 7 10 20
2  43 11 0 10 20
0

0101000
+105 0 -107 0 *
Ed
 1e-07 1 1 0
1  23 0 0 11.127718676731
2  44 5 0 0 11.127718676731
2  45 6 0 0 11.127718676731
0

0101000
+152 3 -105 8 *
Wi

0101100
-151 7 +120 1 -116 1 -114 1 -112 7 -110 7 +108 7 -106 0 +104 0 +103 7 
*
Ve
1e-07
20.7 -6 4
0 0

0101101
*
Ed
 1e-07 1 1 0
1  24 0 0 6.28318530717959
2  46 5 2 0 6.28318530717959
2  47 12 0 0 6.28318530717959
0

0101100
+101 0 -101 0 *
Wi

0101100
-100 1 *
Ve
1e-07
20.7 6 4
0 0

0101101
*
Ed
 1e-07 1 1 0
1  25 0 0 6.28318530717959
2  48 5 2 0 6.28318530717959
2  49 13 0 0 6.28318530717959
0

0101100
+98 0 -98 0 *
Wi

0101100
-97 1 *
Fa
0  1e-07 5 7

0101000
+102 0 +99 0 +96 0 *
Ed
 1e-07 1 1 0
1  26 0 4.10414340147448 5.32063455928828
2  50 6 7 4.10414340147448 5.32063455928828
2  51 11 0 4.10414340147448 5.32063455928828
0

0101000
+105 0 -133 0 *
Wi

0101100
-103 7 -94 0 +131 7 +150 7 *
Fa
0  1e-07 6 7

0101000
+93 0 *
Ed
 1e-07 1 1 0
1  27 0 1 5
2  52 8 0 1 5
2  53 7 0 1 5
0

0101000
+117 6 -145 6 *
Wi

0101100
-121 4 -144 0 +91 4 +116 0 *
Fa
0  1e-07 7 4

0101000
+90 0 *
Ed
 1e-07 1 1 0
1  28 0 1 5
2  54 3 0 1 5
2  55 8 0 1 5
2  56 1 5 1 5
0

0101000
+115 6 -143 6 *
Wi

0101100
-91 4 -142 0 +88 4 +114 0 *
Fa
0  1e-07 8 4

0101000
+87 0 *
Ed
 1e-07 1 1 0
1  29 0 0 4
2  57 1 0 0 4
0

0101000
-141 3 +113 3 *
Wi

0101100
-140 2 +85 2 +112 2 -88 4 *
Fa
0  1e-07 1 2

0101000
+84 0 *
Ed
 1e-07 1 1 0
1  30 0 0 4
2  58 9 0 0 4
0

0101000
-139 3 +111 3 *
Wi

0101100
-110 0 -82 0 +138 0 +85 0 *
Fa
0  1e-07 14 0

0111000
+81 0 *
Ed
 1.5e-07 1 1 0
1  31 0 -1 3
2  59 9 7 -1 3
2  60 10 0 -1 3
0

0101000
+109 0 -137 0 *
Wi

0101100
-136 7 +82 7 +108 7 -79 0 *
Fa
0  1e-07 9 7

0101000
+78 0 *
Ve
1e-07
9.53216973890099 -2.34250165220828e-06 745.770086261799
0 0

0101101
*
Ed
 1e-07 1 1 0
1  32 0 5.3206345592949 6.28318530717959
2  61 11 0 5.3206345592949 6.28318530717959
2  62 10 0 5.3206345592949 6.28318530717959
0

0101000
+135 0 -76 0 *
Ed
 1e-07 1 1 0
1  32 0 0 4.10414340147448
2  61 11 0 0 4.10414340147448
2  62 10 0 0 4.10414340147448
0

0101000
+76 0 -107 0 *
Wi

0101100
+75 0 +134 0 +79 0 -106 0 +74 0 *
Fa
0  1e-07 10 0

0101000
+73 0 *
Ve
1.50000097181494e-07
9.52095275873629 19.9999976574983 752.770068287375
0 0

0101101
*
Ve
1.01799034800796e-07
9.53216973890099 19.9905058601058 745.770086261799
0 0

0101101
*
Ed
 1e-07 1 1 0
1  33 0 1.5707963267949 4.70918412375486
2  63 15 0 1.5707963267949 4.70918412375486
2  64 11 0 1.5707963267949 4.70918412375486
0

0101000
+71 0 -70 0 *
Ve
1.50000071342348e-07
9.54338671906564 19.9999976574983 745.770104236223
0 0

0101101
*
Ed
 1e-07 1 1 0
1  34 0 0.00320485696184941 3.14479751055166
2  65 11 0 0.00320485696184941 3.14479751055166
2  66 16 0 0.00320485696184941 3.14479751055166
0

0101000
+68 0 -71 0 *
Ed
 1e-07 1 1 0
1  35 0 4.70918412375486 4.7123889799876
2  67 15 0 4.70918412375486 4.7123889799876
2  68 11 0 4.70918412375486 4.7123889799876
0

0101000
+70 0 -68 0 *
Ed
 1e-07 1 1 0
1  36 0 0.00949179739257389 20
3  69 70CN 11 0 0.00949179739257389 20
0

0101000
+70 0 -76 0 *
Wi

0101100
+69 0 +67 0 +66 0 -65 0 -74 0 +104 0 -94 0 -132 0 -75 0 +65 0 
*
Fa
0  1e-07 11 0

0101000
+64 0 *
Ed
 1e-07 1 1 0
1  37 0 0.1 4.1
3  71 72CN 12 0 0.1 4.1
0

0101000
+101 0 -129 0 *
Wi

0101100
-128 0 +62 0 +100 0 -62 0 *
Fa
0  1e-07 12 0

0101000
+61 0 *
Ed
 1e-07 1 1 0
1  38 0 0.1 4.1
3  73 74CN 13 0 0.1 4.1
0

0101000
+98 0 -126 0 *
Wi

0101100
-125 0 +59 0 +97 0 -59 0 *
Fa
0  1e-07 13 0

0101000
+58 0 *
Ve
1e-07
10.1113004806489 23.4517519337994 749.270086261799
0 0

0101101
*
Ed
 1e-07 1 1 0
1  39 0 0 1.57132662053757
2  75 15 0 0 1.57132662053757
2  76 17 0 0 1.57132662053757
0

0101000
+56 0 -71 0 *
Ed
 1e-07 1 1 0
1  39 0 4.71291927412731 6.28318530717959
2  75 15 0 4.71291927412731 6.28318530717959
2  76 17 0 4.71291927412731 6.28318530717959
0

0101000
+68 0 -56 0 *
Ve
1e-07
-49.4910455191132 33.4517542763027 749.079068614291
0 0

0101101
*
Ed
 1e-07 1 1 0
1  40 0 0 60.4357194320303
3  77 78CN 15 0 0 60.4357194320303
0

0101000
-56 0 +53 0 *
Ve
1.50000072461426e-07
-49.500918366318 33.3793201281586 748.367632797836
0 0

0101101
*
Ed
 1e-07 1 1 0
1  41 0 6.07849045567634 6.28318530717959
2  79 15 0 6.07849045567634 6.28318530717959
2  80 18 0 6.07849045567634 6.28318530717959
0

0101000
+51 0 -53 0 *
Ve
1.50000066370169e-07
-50.6394341554042 26.6206798718447 749.790504430745
0 0

0101101
*
Ed
 1e-07 1 1 0
1  42 0 1.5707963267949 4.7123889860137
2  81 19 0 1.5707963267949 4.7123889860137
2  82 15 0 1.5707963267949 4.7123889860137
0

0101000
+49 0 -51 0 *
Ed
 1e-07 1 1 0
1  41 0 0 2.93689780208655
2  79 15 0 0 2.93689780208655
2  80 18 0 0 2.93689780208655
0

0101000
+53 0 -49 0 *
Wi

0101100
-55 0 -69 0 -66 0 -54 0 +52 0 +50 0 +48 0 +47 0 -52 0 *
Fa
0  1e-07 15 0

0101000
+46 0 *
Ed
 1.5e-07 1 1 0
1  43 0 -3.50000000000004 3.50000000000004
2  83 17 0 -3.50000000000004 3.50000000000004
2  84 16 0 -3.50000000000004 3.50000000000004
0

0101000
+71 0 -68 0 *
Wi

0101100
+44 0 +67 0 *
Fa
0  1e-07 16 0

0101000
+43 0 *
Wi

0101100
+54 0 +44 0 +55 0 *
Fa
0  1e-07 17 0

0101000
+41 0 *
Ed
 1.5e-07 1 1 0
1  44 0 -3.50000000000001 3.5
2  85 20 0 -3.50000000000001 3.5
2  86 18 0 -3.50000000000001 3.5
0

0101000
+49 0 -51 0 *
Wi

0101100
+50 0 +39 0 +47 0 *
Fa
0  1e-07 18 0

0101000
+38 0 *
Ve
1.00000010658141e-07
-49.2269874038552 13.3240505918304 653.379268489695
0 0

0101101
*
Ve
1.01178493213964e-07
-50.0701762608611 13.49087536855 653.671299755816
0 0

0101101
*
Ed
 1e-07 1 1 0
1  45 0 1.75543770411969e-06 1
2  87 21 9 1.75543770411969e-06 1
2  88 19 0 1.75543770411969e-06 1
0

0101000
+36 0 -35 0 *
Ve
1.5000003907985e-07
-46.5701762608611 10.0000000000017 654.079068614291
0 0

0101101
*
Ed
 1e-07 1 1 0
1  46 0 4.7123889803847 6.03988081449483
2  89 19 0 4.7123889803847 6.03988081449483
2  90 22 0 4.7123889803847 6.03988081449483
0

0101000
+33 0 -36 0 *
Ve
1.37744982033899e-07
-47.2584369337603 8.30884720521416 656.163324357529
0 0

0101101
*
Ed
 1e-07 1 1 0
1  47 0 4.0744990454368 4.71238898038469
2  91 23 0 4.0744990454368 4.71238898038469
2  92 19 0 4.0744990454368 4.71238898038469
0

0101000
+31 0 -33 0 *
Ve
1.01189857828675e-07
-46.8227477324127 10.0000004564745 660.415899633291
0 0

0101101
*
Ed
 1e-07 1 1 0
1  48 0 0.332403865169541 1
2  93 21 9 0.332403865169541 1
2  94 19 0 0.332403865169541 1
0

0101000
+31 0 -29 0 *
Ed
 1.01178261768915e-07 1 1 0
1  49 0 0 1
2  95 21 9 0 1
2  96 19 0 0 1
0

0101000
+29 0 -35 0 *
Ve
1e-07
-50.0701762608611 33.4249242474552 748.358031930616
0 0

0101101
*
Ed
 1e-07 1 1 0
1  50 0 0.320134785175578 97.082439194738
3  97 98CN 19 0 0.320134785175578 97.082439194738
0

0101000
+35 0 -26 0 *
Ed
 1e-07 1 1 0
1  51 0 0 2.97822178082436
2  99 19 0 0 2.97822178082436
2  100 20 0 0 2.97822178082436
0

0101000
+26 0 -49 0 *
Ed
 1e-07 1 1 0
1  51 0 6.11981443441415 6.28318530717959
2  99 19 0 6.11981443441415 6.28318530717959
2  100 20 0 6.11981443441415 6.28318530717959
0

0101000
+51 0 -26 0 *
Wi

0101100
+34 0 +32 0 +30 0 -28 0 -27 0 -25 0 -24 0 -48 0 -23 0 +25 0 
*
Fa
0  1e-07 19 0

0101000
+22 0 *
Wi

0101100
+23 0 +39 0 +24 0 *
Fa
0  1e-07 20 0

0101000
+20 0 *
Ve
1e-07
-50.0701762608611 13.4249242474552 653.358031930616
0 0

0101101
*
Ed
 1e-07 1 1 0
1  46 0 6.03988081449483 6.28318530717959
2  89 19 0 6.03988081449483 6.28318530717959
2  90 22 0 6.03988081449483 6.28318530717959
0

0101000
+36 0 -18 0 *
Ed
 1e-07 1 1 0
1  50 0 0 0.320134785175578
3  97 98CN 19 0 0 0.320134785175578
0

0101000
+18 0 -35 0 *
Wi

0101100
+17 0 -34 0 +16 0 *
Fa
0  1e-07 19 0

0101000
+15 0 *
Ve
3.83239487486007e-07
-46.8227477324127 10.0000002282381 654.079068566241
0 0

0101101
*
Ed
 1.5e-07 1 1 0
1  52 0 3.24742852844832 3.5
2  101 24 0 3.24742852844832 3.5
2  102 22 0 3.24742852844832 3.5
0

0101000
+13 0 -33 0 *
Ed
 1e-07 1 1 0
1  53 0 1.5707963267949 2.82316422703615
2  103 21 9 1.5707963267949 2.82316422703615
2  104 22 0 1.5707963267949 2.82316422703615
0

0101000
+13 0 -36 0 *
Wi

0101100
+12 0 -11 0 +32 0 *
Fa
0  1e-07 22 0

0101000
+10 0 *
Ed
 1e-07 1 1 0
1  46 0 0 4.7123889803847
2  89 19 0 0 4.7123889803847
2  90 22 0 0 4.7123889803847
0

0101000
+18 0 -33 0 *
Wi

0101100
-16 0 +27 0 +28 0 -30 0 +8 0 *
Fa
0  1e-07 19 0

0101000
+7 0 *
Wi

0101100
+17 0 +11 0 -12 0 +8 0 *
Fa
0  1e-07 22 0

0101000
+5 0 *
Sh

0101100
-148 1 +123 0 +118 1 -95 0 -92 0 -89 1 -86 1 -83 1 +80 7 +77 0 
+72 0 +63 0 -60 1 -57 1 +45 0 -42 0 +40 0 -37 0 +21 0 +19 0 
+14 0 -9 0 +6 0 -4 0 *
So

0100000
+3 0 *
Co

1100000
+2 0 *

+1 0 