DBRep_DrawableShape

CASCADE Topology V3, (c) Open Cascade
Locations 6
1
              1              -0               0 6.92982373913894 
              0               1               0 1.61831749097449e-12 
             -0               0               1 619.079068614291 
1
              1              -0               0              -0 
              0               1               0               0 
             -0               0               1              -0 
2  2 -1 0
1
              0 1.22464679914735e-16               1 25.9298237391389 
              0              -1 1.22464679914735e-16 1.61831749097449e-12 
              1               0               0 619.079068614291 
1
              1              -0               0              -0 
              0               1               0               0 
             -0               0               1              -0 
2  5 -1 0
Curve2ds 120
7 0 0  7 14 3  6.2831853071795862 3.4125822554913903  6.1309017505061263 3.4125822554913903  5.9786181938327658 3.3523225373634205  5.8263346371587303 3.2318041085363802  5.6740510804861159 3.0544466880719483  5.5217675238122226 2.8271088476826662  5.3694839671388266 2.5593830579019055  5.0649168537919067 1.9656430537185074  4.9126332971183828 1.6396289545232037  4.7603497404452568 1.2957154697741089  4.6080661837711645 0.94680291227791713  4.455782627098209 0.60638404591162498  4.303499070424607 0.28715724068425752  4.1512155137511471 -5.999999999062311e-07 
 0 8 1.0659848967142194 6 2.1319697934284387 8
7 0 0  7 14 3  2.1319697934284387 -5.999999999062311e-07  1.979686236754979 0.28715724068425735  1.8274026800816046 0.60638404591151129  1.6751191234077396 0.94680291227894031  1.5228355667350115 1.2957154697737678  1.370552010060976 1.6396289545233458  1.2182684533876795 1.9656430537185057  0.91370134004075987 2.5593830579019041  0.76141778336739208 2.8271088476828936  0.60913422669341344 3.0544466880719483  0.45685067002085589 3.2318041085359255  0.30456711334670672 3.3523225373631931  0.15228355667346019 3.4125822554913903  2.5376526277146429e-16 3.4125822554913903 
 4.1512155137511479 8 5.2172004104653666 6 6.2831853071795862 8
7 0 0  7 14 3  6.2831853071795862 3.4125822554913903  6.1309017505061263 3.4125822554913903  5.9786181938327374 3.3523225373634205  5.8263346371589009 3.2318041085363802  5.6740510804860591 3.0544466880719483  5.521767523812251 2.8271088476826662  5.3694839671388266 2.5593830579019055  5.0649168537919067 1.9656430537185074  4.9126332971180418 1.6396289545232037  4.7603497404457116 1.2957154697741089  4.6080661837711645 0.94680291227791713  4.4557826270981522 0.60638404591162498  4.303499070424607 0.28715724068425752  4.1512155137511471 -5.999999999062311e-07 
 0 8 1.0659848967142194 6 2.1319697934284387 8
7 0 0  7 14 3  2.1319697934284387 -5.999999999062311e-07  1.979686236754979 0.28715724068425735  1.8274026800816046 0.60638404591151129  1.6751191234077396 0.94680291227894031  1.5228355667350115 1.2957154697737678  1.370552010060976 1.6396289545233458  1.2182684533876795 1.9656430537185057  0.91370134004075987 2.5593830579019041  0.76141778336739208 2.8271088476828936  0.60913422669341344 3.0544466880719483  0.45685067002085589 3.2318041085359255  0.30456711334670672 3.3523225373631931  0.15228355667346019 3.4125822554913903  2.5376526277146429e-16 3.4125822554913903 
 4.1512155137511479 8 5.2172004104653666 6 6.2831853071795862 8
1 0 82.001136874417625 1 0 
1 0 81.998863125582375 1 0 
1 0 72.001136874417625 1 0 
1 0 71.998863125582375 1 0 
1 6.2831853071795862 -0 0 1 
1 0 -0 0 1 
1 0 0 1 0 
1 0 26.076809620810597 1 0 
7 0 0  6 7 2  5.4124320010114335 22.533431372335766  5.2957581460584917 23.024217562535814  5.1790842911055961 23.572885581686933  5.0624104361525042 24.167413185829901  4.9457365811996965 24.793398299003002  4.8290627262467227 25.435104018569419  4.7123888712937809 26.076810220810597 
 4.0123459597579458 7 4.7123890894755984 7
7 0 0  7 14 3  5.9937669749583407 26.076810220810597  5.9599505146663683 25.831252017764847  5.9216257681479831 25.590060065763865  5.8790718036387846 25.355498934181874  5.8326785146900981 25.128812841943535  5.7828471602858045 24.910478226499826  5.729964983820544 24.700419764934598  5.6190466282881149 24.296584439165311  5.5613254958876741 24.103852891199555  5.5017062571568394 23.919444790630045  5.4406074070744035 23.742436956971012  5.3784458663674943 23.571797661158477  5.315679657753023 23.406685976186086  5.2528679146080677 23.246801550312259 
 0 8 0.50073535835235816 6 1 8
7 0 0  7 14 3  5.2528679146080739 80.169991929501677  5.3158554606755777 80.330323853692391  5.3787869018363237 80.495886646468421  5.4411023363707232 80.666987052272958  5.5023461999955128 80.844492809370394  5.5621033715713981 81.02944980318118  5.6199541377951308 81.222802424956825  5.7307929102937436 81.626905332179334  5.783495471438961 81.836511243137764  5.8331636240860076 82.054372093340902  5.8794110442114214 82.280550780791842  5.9218341228713118 82.514557031308797  5.9600448989204136 82.755127768149777  5.9937669749583424 83.000000600000007 
 0 8 0.50073535835235816 6 1 8
1 6.2831853071795862 -0 0 1 
1 0 -0 0 1 
1 0 0 1 0 
1 0 26.076809620810597 1 0 
7 0 0  7 14 3  0.28941833222124441 26.076810220810593  0.32312797627574691 25.832027663799437  0.36132294252409808 25.591544529540975  0.40372716420004134 25.357620255398896  0.44995320036933445 25.131516638670842  0.49959794772203742 24.913723877224577  0.55227553100842519 24.704179719083921  0.66310352355413305 24.300038692797358  0.72097200383990501 24.106599727792556  0.78074881741962732 23.921564214824105  0.84201381862523639 23.743986629745262  0.90435156346269152 23.572819538478914  0.96730618591625261 23.407193701449419  1.0303173925715132 23.246801550312274 
 0 8 0.49907825486676272 6 1 8
7 0 0  7 14 3  1.030317392571515 80.169991929501677  0.96752880560914256 80.329817412369422  0.90478584781273041 80.494865976771294  0.84264692558540222 80.665437871310687  0.78156952522956069 80.842373061138943  0.72197010031405073 81.026702115342104  0.6642666641688465 81.21934743890931  0.5533370131136881 81.623146659589565  0.50042983511013439 81.833266952964564  0.45057522262606375 82.05166904303897  0.40416077115957527 82.278429060667818  0.36158809755262766 82.51307094766139  0.32324749529934527 82.754350155681578  0.28941833222124558 83.000000600000007 
 0 8 0.49907825486676272 6 1 8
7 0 0  6 7 2  1.5707964358858062 26.076810220810597  1.454122580932864 25.435104018569419  1.3374487259799253 24.79339829900232  1.220774871026947 24.167413185831265  1.1041010160740399 23.572885581686251  0.98742716112109497 23.024217562535814  0.87075330616815272 22.533431372335766 
 1.5707962177039876 7 2.2708393474216408 7
1 6.2831853071795862 -0 0 1 
1 0 -0 0 1 
1 6.2831853071795862 -0 0 1 
1 0 -0 0 1 
7 0 0  6 7 2  5.41243200101143 79.456621751525176  5.2957581460584882 79.947407941725231  5.1790842911054256 80.496075960875714  5.0624104361526179 81.090603565018682  4.945736581199526 81.716588678192238  4.8290627262467209 82.358294397758826  4.7123888712937791 83.000000600000007 
 4.0123459597579494 7 4.7123890894756002 7
1 0 83 1 0 
1 6.2831853071795862 -0 0 1 
1 0 -0 0 1 
7 0 0  7 8 2  -6.2172489379008766e-15 73.590951865978639  0.19179032865950399 73.742843421732118  0.38358065731901547 74.041032183293282  0.57537098597873637 74.476384976922418  0.76716131463808779 75.026622670920915  0.95895164329760973 75.657533743597014  1.1507419719570549 76.328766802345612  1.342532300616565 77.000000633865824 
 3.3698568608813617 8 4.7123891614979332 8
7 0 0  7 8 2  4.4841247730931206 20.203438244939811  4.2923344444336102 20.355329800693287  4.1005441157734595 20.653518562270619  3.9087537871164386 21.088871355841547  3.7169634584547566 21.639109049914623  3.5251731297955757 22.270020122545247  3.3333828011360591 22.941253181306784  3.1415924724765487 23.612487012826996 
 3.3698568608813617 8 4.7123891614979332 8
7 0 0  7 8 2  -8.8817841970012523e-16 80.409376421873873  0.19179030140397582 80.257470260706299  0.38358060280785367 79.959252847020252  0.57537090421226367 79.523858230306359  0.76716120561570733 78.973567676061066  0.9589515070199468 78.342595982889179  1.1507418084238592 77.671298409119316  1.342532109827836 77.000000033865831 
 0.22826420729157407 8 1.5707963171194108 8
7 0 0  7 8 2  1.7990605340864696 20.203109957087293  1.9908508354904462 20.355016118254859  2.1826411368939489 20.653233531930709  2.3744314382993252 21.088628148663702  2.566221739701632 21.6389187028999  2.758012041106781 22.269890396075425  2.9498023425103277 22.941187969841849  3.1415926439143043 23.612486345095334 
 0.22826420729157407 8 1.5707963171194108 8
7 0 0  5 6 2  6.054921099888011 80.500168519155196  6.100573941346326 80.500168519155196  6.1462267828046322 80.491049799133748  6.191879624262981 80.472812260728801  6.2375324657212703 80.44553543430338  6.2831853071795853 80.409376421873873 
 0 6 0.22826420729157407 6
7 0 0  5 6 2  1.5707963267948968 20.112317859805977  1.6164491682532116 20.112317859805977  1.6621020097115284 20.121436579827332  1.7077548511698488 20.139674118232648  1.7534076926281548 20.166950944657792  1.7990605340864696 20.203109957087293 
 0 6 0.22826420729157407 6
7 0 0  8 9 2  4.4841245893732466 76.999999356949502  4.6804741531875917 77.687255918962322  4.8768237170020257 78.374512672431592  5.0731732808108063 79.021393405128038  5.269522844653693 79.587529995653313  5.4658724084292771 80.037509297952056  5.6622219722612499 80.345948342059273  5.8585715360736659 80.500168519155196  6.054921099888011 80.500168519155196 
 4.7123887966648228 9 6.2831853071795862 9
7 0 0  8 9 2  -1.8371986687526487e-07 23.612487022011663  0.19634938009447861 22.925230459998851  0.39269894390895388 22.237973706442062  0.58904850772250938 21.591092973816558  0.78539807154083974 21.024956383145764  0.98174763535098464 20.574977081007091  1.1780971991659044 20.266538036892598  1.3744467629805508 20.112317859805977  1.5707963267948963 20.112317859805977 
 4.7123887966648228 9 6.2831853071795862 9
7 0 0  8 9 2  4.4841245893555559 77.000000643050498  4.7090071790835593 76.212949474201949  4.9338897688057841 75.425897774068289  5.1587723585216736 74.69950213082484  5.3836549482621194 74.094394328829367  5.6085375379880134 73.661471558240009  5.8334201277193642 73.431785233915434  6.0583027174515767 73.412852341073517  6.28318530717958 73.590951865978639 
 1.5707961430573378 9 3.3698568608813617 9
7 0 0  8 9 2  6.2831854909171474 23.612487022011656  6.0583029011891441 22.825435853163107  5.8334203114600527 22.038384153043808  5.6085377217398431 21.311988510024094  5.3836551319993973 20.706880707715754  5.1587725422825983 20.273957937271916  4.9338899525484052 20.04427161284184  4.709007362821124 20.025338720034682  4.4841247730931206 20.203438244939811 
 1.5707961430573378 9 3.3698568608813617 9
1 0 0 1 0 
7 0 0  8 9 2  4.7123889803846897 13.5  4.908738521234052 13.5  5.1050880620838583 13.345787284051767  5.3014376029325589 13.03736316216964  5.4977871437861481 12.587405626989494  5.694136684631097 12.021296414190147  5.8904862254811619 11.37444694910846  6.0868357663302239 10.687223392972767  6.2831853071795862 10 
 0 9 1.5707963267948966 9
7 0 0  8 9 2  0 16.5  0.19634954084936207 16.5  0.39269908169933387 16.654212715950052  0.58904862254621548 16.9626368377576  0.78539816339889512 17.412594372945023  0.98174770424338931 17.978703585729818  1.1780972450967511 18.625553050878807  1.3744467859455345 19.312776607027232  1.5707963267948966 20 
 0 9 1.5707963267948966 9
7 0 0  8 9 2  3.1415926642111613 10.000000037174786  3.3379422037328523 10.687223425500704  3.5342917432540162 11.374446975347382  3.7306412827692839 12.021296433347743  3.9269908223104721 12.587405639154895  4.1233403618170996 13.037363168426964  4.3196899013405528 13.345787286130872  4.5160394408629987 13.5  4.7123889803846897 13.5 
 4.7123889910060583 9 6.2831853071795862 9
7 0 0  8 9 2  4.7123889910060566 19.999999962825211  4.9087385305277476 19.312776574499292  5.1050880700488719 18.625553024647161  5.3014376095764177 17.978703566572221  5.4977871490885022 17.412594360910589  5.6941366886192313 16.962636831456621  5.8904862281360906 16.654212713878223  6.0868357676578952 16.5  6.2831853071795862 16.5 
 4.7123889910060583 9 6.2831853071795862 9
7 0 0  8 16 3  3.1415924715398535 10.000000637174793  3.3379420231035013 9.3127772067020373  3.5342915746618928 8.6255535849695661  3.7306411262397887 7.9787040328556031  3.9269906777517463 7.4125947204011027  4.1233402293673862 6.9626370830810629  4.3196897809134498 6.6542128651708481  4.5160393324853878 6.5000000662041328  4.9087384356126833 6.4999999337958956  5.1050879871781945 6.6542126003669182  5.3014375387210748 6.9626366935881379  5.4977870903203439 7.4125942219106946  5.6941366418432153 7.9787034476030385  5.8904861934306609 8.6255529403424589  6.0868357449945698 9.3127765323524478  6.2831852965582176 9.9999999628252141 
 1.5707961447449568 9 3.141592557254139 7 4.712388969763321 9
7 0 0  8 16 3  4.7123891624346301 20.000000637174789  4.5160396108709824 19.312777206702034  4.3196900593093233 18.625553584970476  4.1233405077364296 17.978704032815585  3.9269909561771783 17.412594720430207  3.7306414046015561 16.962637083030131  3.5342918530550378 16.65421286516721  3.337942301489095 16.500000066204134  2.9452431983617995 16.499999933795895  2.7488936467982512 16.654212600349638  2.5525440952287681 16.962636693628156  2.3561945436740643 17.412594221823383  2.1598449921038991 17.978703447639418  1.9634954405432836 18.625552940335183  1.7671458889799119 19.312776532352441  1.5707963374162641 19.999999962825207 
 1.5707961447449568 9 3.141592557254139 7 4.712388969763321 9
7 0 0  6 7 2  1.5707964358858069 83.000000600000007  1.4541225809328651 82.358294397758826  1.3374487259799537 81.716588678192238  1.2207748710269186 81.090603565018682  1.1041010160740541 80.496075960875714  0.98742716112109885 79.947407941725245  0.87075330616815705 79.456621751525191 
 1.570796217703986 7 2.2708393474216364 7
1 6.2831853071795862 -0 0 1 
1 0 -0 0 1 
7 0 0  8 9 2  -8.8817841970012523e-16 42.590623484042879  0.2248825746073701 42.412506911471368  0.4497651492146133 42.431441709581122  0.67464772382118099 42.66115020372672  0.89953029842763499 43.094114679901395  1.124412873035908 43.699280735978391  1.3492954476442947 44.425746288732626  1.574178022251596 45.212873727727242  1.799060596858967 46.000000635855123 
 2.913328565189865 9 4.712389162048833 9
7 0 0  8 9 2  4.9406530687846182 20.203121947248448  4.7157704941772476 20.025005374676937  4.4908879195645568 20.04394017278355  4.2660053449562838 20.273648666974623  4.0411227703334589 20.706613143192953  3.8162401957506518 21.311779199226294  3.5913576211346481 22.038244751915045  3.3664750465330195 22.825372190932811  3.1415924719256485 23.612499099060692 
 2.913328565189865 9 4.712389162048833 9
7 0 0  8 9 2  0.22826408839992704 49.499831489044581  0.42461362796868773 49.499831489044581  0.62096316753547853 49.345626199807157  0.81731270711088655 49.037216931261355  1.0136622466616245 48.587281065381831  1.2100117862487423 48.021199115348281  1.4063613258106216 47.374380800269137  1.6027108653812516 46.687190337297267  1.7990604049500125 46.000000035855116 
 0 9 1.5707963165500858 9
7 0 0  8 9 2  1.5707963267948966 20.112666974161009  1.7671458663636572 20.112666974161009  1.963495405932008 20.266872263369805  2.1598449454913862 20.575281531870132  2.3561944850716827 21.02521739754593  2.5525440246292419 21.591299347826862  2.7488935642059005 22.238117662887817  2.9452431037762201 22.925308125908316  3.141592643344981 23.612498427350467 
 0 9 1.5707963165500858 9
7 0 0  5 6 2  -3.5527136788005009e-15 49.409048228263558  0.045652817679982506 49.445203721618213  0.091305635359969273 49.472477893237738  0.13695845303995391 49.490713656560047  0.18261127071994049 49.499831489044581  0.22826408839992654 49.499831489044581 
 6.0549212187796559 6 6.2831853071795862 6
7 0 0  5 6 2  1.3425322383949665 20.203450234942032  1.3881850560749525 20.167294741587376  1.4338378737549409 20.140020569967845  1.4794906914349237 20.121784806645707  1.5251435091149101 20.112666974161009  1.5707963267948961 20.112666974161009 
 6.0549212187796559 6 6.2831853071795862 6
1 0 83 1 0 
7 0 0  7 8 2  4.9406528863503132 45.999999361510689  5.132443232183066 46.671233253150895  5.324233578015992 47.342466372236231  5.5160239238502982 47.973377494534361  5.7078142696818759 48.523615216829057  5.8996046155139084 48.958968008939337  6.0913949613468299 49.257156736639736  6.2831853071795827 49.409048228263558 
 4.7123887979503865 8 6.0549212187796559 8
7 0 0  7 8 2  -1.8243430410791461e-07 23.612499101694901  0.19179016339844859 22.941265210054695  0.3835805092312512 22.270032090970744  0.57537085506396579 21.639120968675343  0.76716120089679407 21.088883246384285  0.95895154672956551 20.653530454258544  1.1507418925622137 20.355341726565857  1.3425322383949665 20.203450234942032 
 4.7123887979503865 8 6.0549212187796559 8
7 0 0  7 8 2  4.9406528863678822 46.000000638489318  5.1324432321981259 45.328702107752967  5.3242335780289523 44.657404349656645  5.5160239238584836 44.026432471291628  5.7078142696900613 43.476141761730105  5.8996046155189106 43.040747045593889  6.0913949613493417 42.742529602652695  6.2831853071795853 42.590623484042879 
 1.5707961443781622 8 2.913328565189865 8
7 0 0  7 8 2  6.2831854895963213 23.612499101694894  6.0913951437660785 22.941200570958543  5.8996047979358579 22.269902812857254  5.7078144521054455 21.638930934503151  5.5160241062751751 21.088640224925257  5.3242337604450469 20.653245508800865  5.1324434146148619 20.355028065858264  4.9406530687846182 20.203121947248448 
 1.5707961443781622 8 2.913328565189865 8
1 0 0 1 0 
7 0 0  8 16 3  -1.8204993956771887e-07 10.000000637174793  0.19634936951370818 9.3127772067020373  0.39269892107779469 8.6255535849695661  0.58904847263693227 7.9787040328556031  0.78539802420982596 7.4125947204011027  0.98174757576452976 6.9626370830810629  1.1780971273327623 6.6542128651708481  1.3744466788955947 6.5000000662041328  1.7671457820228902 6.4999999337958956  1.9634953335885257 6.6542126003669182  2.1598448851400462 6.9626366935881379  2.3561944367356773 7.4125942219106946  2.5525439882640057 7.9787034476030385  2.7488935398437206 8.6255529403424589  2.9452430914047767 9.3127765323524478  3.1415926429684244 9.9999999628252141 
 1.5707961447449568 9 3.141592557254139 7 4.712388969763321 9
7 0 0  8 16 3  1.5707961447449559 -6.3717478937519445e-07  1.7671456963086036 0.68722279329796643  1.9634952478691048 1.3744464150145177  2.1598447994520029 2.0212959671716817  2.3561943509703269 2.5874052795534226  2.5525439025732339 3.0373629169680498  2.748893454123845 3.3457871348114168  2.9452430056904912 3.4999999337958654  3.3379421088177867 3.5000000662041026  3.5342916603785852 3.345787399626488  3.7306412119542074 3.0373633064136811  3.9269907634843548 2.5874057780583826  4.1233403150836239 2.0212965523842286  4.3196898666301422 1.3744470596489009  4.5160394181996741 0.68722346764755815  4.7123889697633219 3.7174791245320193e-08 
 1.5707961447449568 9 3.141592557254139 7 4.712388969763321 9
7 0 0  8 9 2  1.5707963267948966 13.5  1.7671458904005011 13.5  1.9634954540040326 13.345787248294073  2.1598450176070401 13.037363054965681  2.3561945812234626 12.587405418402341  2.5525441448207857 12.021296086160874  2.7488937084262943 11.374446499312398  2.9452432720341282 10.687222835444812  3.1415928356397327 9.9999993628252071 
 0 9 1.5707965088448363 9
7 0 0  8 9 2  6.2831853071795862 3.5  6.0868357435739817 3.5  5.8904861799686827 3.3457872482977109  5.6941366163644247 3.0373630549629524  5.4977870527584614 2.5874054184041597  5.3014374891529528 2.0212960861972533  5.1050879255466484 1.3744464993019392  4.9087383619403528 0.68722283544481511  4.7123887983347483 -6.3717478937519445e-07 
 0 9 1.5707965088448363 9
7 0 0  8 9 2  0 10  0.19634954084936204 10.687223392972767  0.39269908169751488 11.374446949082994  0.58904862254621548 12.02129641429201  0.78539816339616664 12.587405626967666  0.98174770424566304 13.037363162235124  1.1780972450948184 13.345787284031758  1.3744467859455345 13.5  1.5707963267948966 13.5 
 4.7123889803846897 9 6.2831853071795862 9
7 0 0  8 9 2  1.5707963267948966 0  1.3744467859455345 0.68722339297276713  1.1780972450972058 1.3744469491139171  0.98174770424338931 2.0212964142338024  0.78539816340025936 2.5874056270222354  0.58904862254530599 3.0373631621841923  0.39269908169956125 3.3457872840467644  0.19634954084936207 3.5  0 3.5 
 4.7123889803846897 9 6.2831853071795862 9
1 6.2831853071795862 -0 0 1 
1 0 -0 0 1 
1 0 0 1 0 
7 0 0  6 92 19  1.1518831937285048 -6.0000000000000008e-07  1.1858531775378423 0.056977938486347988  1.2205658093495486 0.11253007800249744  1.2560410698122004 0.16629458966248814  1.2923021595382105 0.21789545906516536  1.3293781476667779 0.26694803293457586  1.3846270728502559 0.33412505947310889  1.4021196684977217 0.3545659908493568  1.4197779593176503 0.37433975054664154  1.4375960642340482 0.39340176545073313  1.4555686691465104 0.41171109867563888  1.5079933350222208 0.46239137591232127  1.542861918763957 0.49275096197011092  1.5781745809772592 0.51995891717001619  1.6138214151586447 0.54377776528179045  1.6496974930263646 0.56408004913401733  1.7145175715522483 0.59426890267503041  1.7433892625126937 0.60541171294366691  1.7722495973647712 0.61426908239409161  1.8010374710252137 0.62088346502952785  1.829688929131996 0.62534050447747314  1.8986917426432453 0.63122155173972838  1.9387784028354045 0.63054166922338239  1.9783566727629702 0.62611931525080466  2.017380201289797 0.61839640642490445  2.0557901607406124 0.60784653461995852  2.1234774118607791 0.58472071031639294  2.1530377633805386 0.57299730790237591  2.1822088570402935 0.56000906397820482  2.2110058398949604 0.54596239322598528  2.2394426209930596 0.53104965637687951  2.2889346253725664 0.50356227903454509  2.3101397482237536 0.49127390378714869  2.3311569887435941 0.47866008099665508  2.3519963283035215 0.46579171484004817  2.3726679808330786 0.45273456714355947  2.4579547787313349 0.39791784368475697  2.521194187492017 0.35498764025889001  2.5831921067152148 0.31269556421952099  2.6442072403206907 0.27257444515778267  2.7044969064102276 0.23587595700983149  2.8280544166983779 0.16925693984751236  2.8912622108006887 0.13993562401399198  2.9540748468806077 0.1169898890350612  3.0166345538762425 0.10136477176647593  3.0790882155628321 0.09354582175549872  3.1750825063205301 0.093561998242854327  3.2085695758505417 0.095815289238005086  3.2420732409354986 0.10031584834430059  3.2756116556769594 0.10702226690844228  3.3092024283400421 0.11585344241951979  3.3722890719966045 0.13616297636182492  3.4017672495225146 0.14716814225446972  3.4313173766169349 0.15962813342302637  3.460958125842422 0.1734459834878315  3.4907079660062785 0.18850599328462281  3.5990233583007485 0.24712190831353398  3.6782129926591738 0.29713996180305724  3.7587846150136133 0.35242409919607798  3.8413622596584549 0.41004638268691057  3.9265492111729854 0.46615312405478782  4.043123111638681 0.53098485965973286  4.0715161510102833 0.5458990678002229  4.1002682503322596 0.55995210453839939  4.1293933172888755 0.57295253454171369  4.1589064846001769 0.58469491746732249  4.2259650237644699 0.60770304567119571  4.2637714713951924 0.6181837219715216  4.302174076234377 0.62593613285607941  4.3411183989256754 0.6305079684572884  4.380561603740845 0.63147510625387115  4.4495723198793167 0.62625496781352663  4.4788991183704923 0.6219354962638749  4.5083744477980146 0.61536076462144085  4.5379295582096573 0.60643616486507257  4.567498907706586 0.59511440734503485  4.6334729208437588 0.56446275289022596  4.6698047461140639 0.54389746461221189  4.7059011680323293 0.51972458077347217  4.7416533389675761 0.49207704560993565  4.7769471273388922 0.4612034812347387  4.8298051385738239 0.40983163508923431  4.8478037262737814 0.39140167356158567  4.8656464598628242 0.37221895327727289  4.8833281409213223 0.35232476182486133  4.9008430014759279 0.33176398124006412  4.9557216366248165 0.26474237519653432  4.9924218876732906 0.21603445292659387  5.0283222889505197 0.16483771372475739  5.0634515093298633 0.11152561248406324  5.0978326164453485 0.056462823915207606  5.1314856383845049 -6.0000000000000008e-07 
 0 7 0.053904534121616311 5 0.078520629912407519 5 0.125114396127356 5 0.16241991963309452 5 0.215609871887496 5 0.25786429164706909 5 0.29006027192420103 5 0.39171614490965967 5 0.50002652793094338 5 0.55805918754829698 5 0.60879036910828965 5 0.74197353586200165 5 0.78416781797220514 5 0.83654945488979371 5 0.87474959736115221 5 0.92192802839308308 5 0.94659884798194804 5 1 7
7 0 0  6 92 19  3.3964749116740038 7.1973605342736562  3.3741742744245897 7.2457204261344828  3.3512943837716418 7.2907102868102198  3.3278459000647267 7.3318944187071322  3.3038404749856376 7.3688066097678728  3.2792905337286271 7.400945595622443  3.2427553262590698 7.4400204179979381  3.2311944791227982 7.4511580999123224  3.219534391809713 7.4611264224907217  3.2077828068892469 7.4698713733632678  3.1959473334623532 7.4773420727817852  3.1614884254811479 7.4951291395006825  3.1386480873026876 7.5020410016992498  3.1156245054316885 7.5038564986450211  3.0925216696588778 7.5003295429067407  3.0694402195387211 7.4913397271054345  3.0280971085746224 7.4653283728033779  3.0098100624772051 7.4502766818154056  2.9916736333739817 7.4317587448149709  2.9737413184569448 7.4098513316739734  2.9560660920171511 7.3846908160118767  2.913941925418813 7.3162465368236314  2.8898450294175007 7.269859162061981  2.8664616738083271 7.2177585778512894  2.8438441661037746 7.1604518992195425  2.8220446384189342 7.0985160445734126  2.784486478295277 6.9802458170982424  2.7683912089072806 6.9253275229365165  2.7528246330706634 6.8680713857835336  2.7377834453161682 6.8086838661129798  2.7232645399945175 6.7473571457659345  2.6985979957769324 6.6361988766291056  2.6882304697142061 6.5870970477740682  2.6781591705642414 6.5370322747334351  2.6683809292347127 6.4860661026256698  2.6588926700649669 6.4342529883400106  2.6206392734955481 6.2155205345674638  2.5944329910478992 6.0413421064127704  2.5710018234170828 5.860674262574328  2.55031120465559 5.6746310079248659  2.5323530458041996 5.4839961857099944  2.5009556371277548 5.0819615593998559  2.4878882985238584 4.8700087163588126  2.4780245649940622 4.6547682160702983  2.4714232796268467 4.4373484883210192  2.4681176997644036 4.2187610288741295  2.4681176997644036 3.8827810108327587  2.4690666616125623 3.7655761668499328  2.4709643687833189 3.6485497331379992  2.4738076143564385 3.5318747080585933  2.4775903276903617 3.4157285138841491  2.4864240533860751 3.1993815618656658  2.4912554546894667 3.0990171604614858  2.496793080930952 2.9992951236453642  2.5030316322029038 2.9003176732059175  2.5099655791279489 2.8021942533949544  2.5376040393470709 2.449989673041193  2.5623403835686052 2.2020539735358375  2.5917430444859484 1.962343537143552  2.6258769221471647 1.7326461260787502  2.6648746964593135 1.5159502154203806  2.7229498894642492 1.253940310151566  2.7374402186903972 1.1926575076123085  2.7524514200824011 1.133306104815176  2.7679866205334469 1.0760772589081109  2.7840491467944664 1.021176376211099  2.821242196656248 0.90382971669233303  2.8426834361792941 0.84268939661482101  2.8649189541207893 0.78602207984776717  2.8879001979888703 0.73437732649416843  2.911578451695366 0.68824131282954137  2.9536471386014056 0.61872915029874587  2.9717193846620145 0.59259629401781977  2.990065804195094 0.56986348352167771  3.0086296015265668 0.55068067299991885  3.0273534173931806 0.53513227133151386  3.0694285257947005 0.50855238533623659  3.0928038163086122 0.49946005507300656  3.1162007297116783 0.49597122970023677  3.139514809525251 0.49796012634241532  3.1626380617357825 0.50516885413338974  3.1973881490057088 0.52350575778511688  3.2092426335357707 0.53112639175391951  3.2210120775922402 0.54002301597594515  3.2326889340783063 0.55014424519393934  3.2442655241949758 0.56143562470156227  3.2805581750044692 0.60068868529781205  3.3048591314572504 0.63273233862247769  3.3286246476113441 0.66944533059109179  3.3518430037647966 0.71034099652266247  3.3745032424408503 0.75496695594348007  3.3965953911270361 0.8029008017490975 
 0 7 0.053904534121616311 5 0.078520629912407519 5 0.125114396127356 5 0.16241991963309452 5 0.215609871887496 5 0.25786429164706909 5 0.29006027192420103 5 0.39171614490965967 5 0.50002652793094338 5 0.55805918754829698 5 0.60879036910828965 5 0.74197353586200165 5 0.78416781797220514 5 0.83654945488979371 5 0.87474959736115221 5 0.92192802839308308 5 0.94659884798194804 5 1 7
1 6.2831853071795862 -0 0 1 
1 0 -0 0 1 
1 6.2831853071795862 -0 0 1 
1 0 -0 0 1 
7 0 0  6 47 10  4.2934757463633408 -6.0000000000000008e-07  4.3274457491143936 0.056977960409635209  4.3621584006296166 0.11253012067400171  4.3976336815759138 0.16629465127462711  4.4338947925913645 0.21789553714838883  4.4709708028545325 0.26694812434490783  4.5262197554426935 0.3341251572564487  4.5437123554837848 0.3545660850957752  4.5613706507419183 0.37433984085693933  4.5791887601395667 0.39340185140882139  4.5971613695568125 0.41171117983416439  4.649586066003903 0.46239145875574844  4.6844546764694472 0.49275104725556346  4.7197673657193553 0.51995899967502457  4.7554142269571118 0.54377783947241121  4.7912903316134985 0.56408010952359378  4.8561104756298361 0.59426893755805399  4.8849822054804601 0.60541173504056989  4.9138425786372553 0.61426908579047845  4.9426304898183888 0.62088344429040443  4.9712819844398153 0.62534045483295897  5.040284738946081 0.63122141008122667  5.080371306255163 0.6305414899690065  5.1199494850046312 0.62611911777113738  5.1589729244503433 0.61839620730861578  5.1973827974184941 0.60784634728688447  5.2650699575441342 0.58472054225975711  5.2946302834938876 0.57299714584023342  5.3238013556616295 0.56000890690542582  5.3525983286363656 0.54596223695429902  5.3810351046627831 0.5310494999241816  5.4305270360370832 0.50356215703911344  5.4517321082105132 0.49127380949915761  5.4727492988997648 0.47866001555873844  5.4935885894013694 0.46579167890235795  5.5142601935701494 0.45273456091117953  5.5995468849105805 0.39791790107674396  5.6627862364056165 0.35498772633527065  5.724784099239324 0.31269566890837985  5.7857991767967221 0.27257455501655553  5.8460887866505278 0.23587605611799334  5.9696463842437675 0.16925687036737272  6.0328543189010402 0.1399354265047022  6.0956670928060683 0.11698958715467185  6.1582269359272814 0.10136439735051594  6.2206807331052811 0.093545410924690015  6.2831853071795862 0.09355594388375188 
 0 7 0.1078033716669502 5 0.15703294434868387 5 0.2502155674372275 5 0.32482273113200161 5 0.43119671982861985 5 0.51570102429126541 5 0.58008942316722523 5 0.78339021193382385 5 1 7
7 0 0  6 47 10  2.8867103292268648 0.8026396094546504  2.9090109772931521 0.75427967966123832  2.9318908794961138 0.70928978446672397  2.9553393754615098 0.66810562218376823  2.9793448134814287 0.63119340564050208  3.0038947683346024 0.59905440004203125  3.0404299924532832 0.55997956294743279  3.0519908420443174 0.54884188002694234  3.0636509318504501 0.53887355708342566  3.0754025192987378 0.53012860651099036  3.0872379952726798 0.52265790808489843  3.1216969221534145 0.504870840361484  3.1445372770370796 0.49795898283129736  3.1675608756774349 0.49614349865021717  3.1906637280221872 0.49967047552809135  3.213745194263494 0.50866032068133771  3.2550883446563694 0.53467174886046454  3.2733754141408684 0.54972348601828569  3.2915118658257225 0.56824147805753256  3.309444202343427 0.59014895446920457  3.3271194492276095 0.61530954071515542  3.369243573967927 0.68375386257606829  3.3933404113742633 0.7301411723488872  3.4167237111895203 0.78224166307372256  3.4393411663304598 0.83954822288654363  3.4611406451046229 0.90148393730644683  3.4986987571174963 1.0197539852326647  3.5147940139885563 1.0746722204369163  3.5303605797424988 1.1319283049849993  3.5454017639634503 1.1913157925572422  3.559920668840252 1.2526424869970019  3.5845871806832572 1.3638005667479238  3.5949546842388713 1.4129022640139619  3.6050259623308682 1.4629669012329571  3.6148041840276588 1.5139329336968441  3.6242924249684969 1.5657459048653146  3.6625457927337211 1.7844779861088695  3.6887520688241633 1.9586561783404848  3.7121832356602873 2.1393237799423845  3.7328738592929347 2.3253667883348696  3.7508320288492856 2.5160013619665245  3.7822295242279984 2.9180361400719526  3.7952969196581745 3.1299894144075786  3.805160696353699 3.3452303671329129  3.8117620107384012 3.5626505612726187  3.8150676051743764 3.7812384949380795  3.8150676051743764 4.0000045044517147 
 0 7 0.1078033716669502 5 0.15703294434868387 5 0.2502155674372275 5 0.32482273113200161 5 0.43119671982861985 5 0.51570102429126541 5 0.58008942316722523 5 0.78339021193382385 5 1 7
1 0 0 1 0 
7 0 0  6 47 10  0 0.09355594388375188  0.062786207177953648 0.093566524302219664  0.12552024639553916 0.10147732054449717  0.18836150991600364 0.11726417209758568  0.2514591832448555 0.14043263384062907  0.31495773348147238 0.1700209084872816  0.43849212936030563 0.23687274579933967  0.49845879962858591 0.27344630249450774  0.55914580434662708 0.31338652695413316  0.62080658014114209 0.3554603304751055  0.68369599549491233 0.39815919432391184  0.76857272010713318 0.45274523951869822  0.78920109840043073 0.46578402975944849  0.80999640408036855 0.47863547546219715  0.83096879991373662 0.49123424149049072  0.85212819938016748 0.50350989743735219  0.90153094082695029 0.5309848697475944  0.92992399274326143 0.54589907878297306  0.9586761050271555 0.55995211410063017  0.9878011853273293 0.57295254006232488  1.0173143663350916 0.58469491602236423  1.0843729150088048 0.60770301386196257  1.1221793578803547 0.61818366768469868  1.1605819574626566 0.62593605395853091  1.199526274171381 0.63050786320883823  1.2389694720586555 0.63147497354587678  1.3079801384818388 0.62625478993514161  1.3373068940890738 0.6219353059992766  1.3667821796783899 0.6153605679835551  1.3963372455690133 0.60643596858115367  1.425906550106921 0.59511421861997238  1.4918805053145381 0.564462577635096  1.5282123174339428 0.54389729050936531  1.5643087259982602 0.51972441075972098  1.6000608835404984 0.49207688272738714  1.6353546586477865 0.46120332842213557  1.6882126536940341 0.40983149814605052  1.7062112381739734 0.39140154022602874  1.7240539685729799 0.37221882395121059  1.7417356464802081 0.35232463689565324  1.7592505039317843 0.33176386107438771  1.8141291262161425 0.26474227512499332  1.850829367945414 0.21603436982661847  1.8867297603295345 0.16483764939049314  1.9218589722240813 0.11152556847359457  1.9562400712908199 0.056462801481131843  1.9898930856792261 -6.0000000000000008e-07 
 0 7 0.21756069937856823 5 0.41970915520651675 5 0.48396448282128413 5 0.56835025533660855 5 0.67311000157730072 5 0.74950762025077067 5 0.84386130067455889 5 0.89320128568215817 5 1 7
7 0 0  6 47 10  3.8150676051743764 4.0000045044517156  3.8150676051743764 4.2197562298292617  3.8117321554994863 4.4393257677141191  3.8050714474253615 4.6577115579922861  3.7951193331457214 4.8738896621813179  3.7819355911215182 5.0867369854027178  3.7504137552003529 5.4884285682680787  3.7325058916893763 5.6779184739634756  3.7118960564987344 5.862856016620178  3.6885759809582108 6.0424687284428948  3.6625113912692822 6.215660359760629  3.6244531824971635 6.4334089005916075  3.6149878834577573 6.4851328844094738  3.6052337737156681 6.5360139306740406  3.5951877946792439 6.5859979709224534  3.5848468000744194 6.6350238754761373  3.5602351606867457 6.7460607394887324  3.5457448199444155 6.8073435311847312  3.530733606707265 6.8666949201241243  3.5151983941083604 6.9239237487503766  3.4991358554242953 6.978824610355093  3.4619427893291932 7.0961711748485783  3.4405015468297937 7.1573114232714437  3.4182660266734914 7.2139786664206609  3.3952847815178928 7.2656233444369747  3.3716065276164522 7.311759281579751  3.329537864323767 7.3812712751796026  3.3114656423539768 7.4074040469733733  3.2931192482435279 7.4301367819326165  3.2745554774515635 7.4493195268921957  3.2558316890243177 7.4648678736430361  3.2137566160422466 7.4914476787651658  3.1903813334312798 7.5005399757704936  3.1669844283955846 7.5040287720381924  3.1436703572738462 7.5020398506670274  3.1205471139304053 7.4948311024991865  3.0857970378621062 7.4764941728097156  3.0739425556925841 7.4688735296950126  3.0621731140257289 7.4599768969153368  3.0504962599496603 7.4498556597119636  3.03891967225427 7.4385642727693737  3.0026270312484993 7.3993111926090229  2.9783260820390045 7.3672675299278474  2.9545605730047488 7.3305545315030436  2.9313422238312685 7.2896588616546358  2.9086819919546927 7.2450329004668674  2.8865898498288192 7.197099054563691 
 0 7 0.21756069937856823 5 0.41970915520651675 5 0.48396448282128413 5 0.56835025533660855 5 0.67311000157730072 5 0.74950762025077067 5 0.84386130067455889 5 0.89320128568215817 5 1 7
7 0 0  5 6 2  3.3966102820564958 -6.0002048485330306e-07  3.3965801360788888 1.6002294549237019  3.3965499901012848 3.2003446055549247  3.3965198441236808 4.8003448483239168  3.396489698146067 6.4002301809979976  3.39645955216846 8.0000006000032045 
 5.7999034714213087 6 5.8000542013093446 6
1 6.2831853071795862 -0 0 1 
1 0 -0 0 1 
1 0 0 1 0 
1 0 8 1 0 
1 6.2831853071795862 -0 0 1 
1 0 -0 0 1 
1 0 0 1 0 
1 0 8 1 0 
7 0 0  5 6 2  2.8865749589028984 8.0000006000059329  2.8866051048681021 6.3997705451282139  2.8866352508333009 4.799655394664363  2.886665396798513 3.1996551517180123  2.8866955427637131 1.5997698190512903  2.8867256887289168 -6.0001775636919774e-07 
 2.6583108705029712 6 2.6584616003289896 6
1 0 1 1 0 
1 0 9 1 0 
1 0 1 1 0 
1 0 9 1 0 
1 6.2831853071795862 -0 0 1 
1 0 -0 0 1 
1 6.2831853071795862 -0 0 1 
1 0 -0 0 1 
1 0 0 0 1 
1 0 0 0 1 
1 0 0 1 0 
1 0 0 1 0 
1 0 20 1 0 
1 16 0 0 1 
2 8 4 1 0 -0 1 1.7
1 0 4.0999999999999996 1 0 
2 8 16 1 0 -0 1 1.7
1 0 4.0999999999999996 1 0 
1 0 20 1 0 
1 16 0 0 1 
2 8 4 1 0 -0 1 1.7
1 0 0.099999999999999645 1 0 
2 8 16 1 0 -0 1 1.7
1 0 0.099999999999999645 1 0 
1 6.2831853071795862 -0 0 1 
1 0 -0 0 1 
1 6.2831853071795862 -0 0 1 
1 0 -0 0 1 
Curves 109
1 -36.25257147155164 -9.6567985325942356 95.01348781621266 0 0 1 
1 -36.25257147155164 -9.6567985325942356 105.01348781621266 0 1 0 
1 -36.25257147155164 -9.6567985325942356 95.01348781621266 0 1 0 
1 -36.25257147155164 9.6567994455399759 95.01348781621266 0 0 1 
3 -36.25257147155164 6.0000004564728702 99.377124179849019 1 0 0 0 0 -1 -0 1 0 4.1485833487653219 3.5
1 -36.25257147155164 -1.8283990380606827 101.58491638764123 -0 1 0 
3 -36.25257147155164 6.0000004564728702 99.377124179849019 1 0 0 0 0 -1 -0 1 0 4.1485833487653219 3.5
3 -36.25257147155164 -5.9999995435271298 99.377124179849019 1 0 0 0 0 -1 -0 1 0 4.1485833487653219 3.5
3 -36.25257147155164 -5.9999995435271298 99.377124179849019 1 0 0 0 0 -1 -0 1 0 4.1485833487653219 3.5
1 -36.25257147155164 -7.8283990380606827 101.58491638764123 -0 1 0 
1 -36.25257147155164 -9.6567985325942356 95.01348781621266 1 0 0 
1 -22.25257147155164 -9.6567985325942356 95.01348781621266 0 0 1 
1 -36.25257147155164 -9.6567985325942356 105.01348781621266 1 0 0 
1 -36.25257147155164 9.6567994455399759 105.01348781621266 1 0 0 
1 -22.25257147155164 -9.6567985325942356 105.01348781621266 0 1 0 
2 -29.252565268527082 -4.6567985325942356 105.01348781621266 0 0 1 1 0 -0 -0 1 0 3.1499999999999999
2 -29.252577674576198 4.6567994455399759 105.01348781621266 0 0 1 1 0 -0 -0 1 0 3.1499999999999999
1 -36.25257147155164 9.6567994455399759 95.01348781621266 1 0 0 
1 -22.25257147155164 -9.6567985325942356 95.01348781621266 0 1 0 
2 -29.252565268527082 -4.6567985325942356 95.01348781621266 0 0 1 1 0 -0 -0 1 0 3.1499999999999999
2 -29.252577674576198 4.6567994455399759 95.01348781621266 0 0 1 1 0 -0 -0 1 0 3.1499999999999999
1 -22.25257147155164 9.6567994455399759 95.01348781621266 0 0 1 
1 -33.373507248875583 6.0000004564728711 97.060672609150288 -0.84366148773210747 0 -0.53687549219315922 
2 -35.25257147155164 6.0000004564728702 100.01348781621266 -0.84366148773210747 0 -0.53687549219315922 0.53687549219315922 0 -0.84366148773210747 0 -1 -0 3.5
2 -57.25257147155164 6.0000004564728702 86.01348781621266 -0.84366148773210747 0 -0.53687549219315922 0.53687549219315922 0 -0.84366148773210747 0 -1 -0 3.5
3 -57.252571471551647 6.0000004564728702 86.01348781621266 0 0 1 -1 0 0 0 -1 0 6.51920240520265 3.5
7 0 0  7 14 3  -55.451657956056607 6.998882246587212 83.183479745714337  -55.262624884557404 7.1123173696080464 83.343811669905051  -55.082095906578246 7.2395425737207661 83.509374462681109  -54.912950438786204 7.3787703985596469 83.680474868485561  -54.757215462802321 7.5275288133336016 83.85798062558311  -54.616121267930041 7.6829683280035583 84.042937619393811  -54.490179549447205 7.8420094591021394 84.236290241169485  -54.268666085486799 8.160483783851415 84.640393148391979  -54.17360512499549 8.3190551011084466 84.849999059350424  -54.093663169166263 8.4740261622924233 85.067859909553562  -54.02778598937509 8.6223406096789432 85.294038597004487  -53.974438674670793 8.7611494993855956 85.528044847521457  -53.931820690151582 8.8880001491969853 85.768615584362436  -53.898136322472439 9.0011186663585381 86.013488416212681 
 0 8 0.50073535835235816 6 1 8
2 -57.25257147155164 6.0000004564728702 86.01348781621266 -0.84366148773210747 0 -0.53687549219315922 0.53687549219315922 0 -0.84366148773210747 0 -1 -0 3.5
1 -33.373507248875583 -5.9999995435271289 97.060672609150288 -0.84366148773210747 0 -0.53687549219315922 
2 -35.25257147155164 -5.9999995435271298 100.01348781621266 -0.84366148773210747 0 -0.53687549219315922 0.53687549219315922 0 -0.84366148773210747 0 -1 -0 3.5
2 -57.25257147155164 -5.9999995435271298 86.01348781621266 -0.84366148773210747 0 -0.53687549219315922 0.53687549219315922 0 -0.84366148773210747 0 -1 -0 3.5
7 0 0  7 14 3  -55.451657956056607 -6.9988813336414681 83.183479745714351  -55.263221984350835 -7.1119581485208387 83.343305228582082  -55.083205938557768 -7.238756741075961 83.508353792983968  -54.914479018606045 -7.3775052774688676 83.67892568752336  -54.759071368133391 -7.5257542120887742 83.855860877351603  -54.618219840034271 -7.6806582033950583 84.04018993155475  -54.492437631441263 -7.8391646083373754 84.232835255121955  -54.27036856267263 -8.1576396079302231 84.636634475802225  -54.174796428289611 -8.3167456892198803 84.846754769177252  -54.094455219938411 -8.4722518040339025 85.065156859251559  -54.028272645746576 -8.6210749758363665 85.291916876880563  -53.974704226001577 -8.7603626299582444 85.526558763874007  -53.931927657445968 -8.8876400197196812 85.767837971894224  -53.898136322472439 -9.0011177534127906 86.013488416212667 
 0 8 0.49907825486676272 6 1 8
3 -57.252571471551647 -5.9999995435271298 86.01348781621266 0 0 1 -1 0 0 0 -1 0 6.51920240520265 3.5
2 -57.25257147155164 -5.9999995435271298 86.01348781621266 -0.84366148773210747 0 -0.53687549219315922 0.53687549219315922 0 -0.84366148773210747 0 -1 -0 3.5
1 -26.102565268527083 -4.6567985325942365 23.012350941795034 0 0 1 
1 -26.102577674576199 4.656799445539975 23.014624690630285 0 0 1 
3 -57.25257147155164 10.00000045647287 86.01348781621266 -0.84366148773210747 0 -0.53687549219315922 -0.53687549219315922 0 0.84366148773210747 0 1 0 6.51920240520265 3.5
1 -57.25257147155164 8.0000004564728702 86.01348781621266 -0 -1 0 
2 -57.25257147155164 10.00000045647287 86.01348781621266 0 0 1 1 0 -0 -0 1 0 3.5
2 -57.25257147155164 10.00000045647287 86.01348781621266 0 0 1 1 0 -0 -0 1 0 3.5
1 -53.75257147155164 10.000000456472868 3.0134878162126597 0 0 1 
1 -53.75257147155164 10.000000456472868 3.0134878162126597 0 0 1 
3 -57.25257147155164 10.00000045647287 80.01348781621266 0.68874830945910626 -0.16000528938682426 0.70712380357718263 -0.68878147154003466 0.16001299337430813 0.70708975838611754 -0.22628709790964166 -0.97406064971316453 -1.3877787807814457e-17 4.9496283144398134 3.5
3 -57.25257147155164 10.00000045647287 80.01348781621266 -0.68878147154003466 0.16001299337430813 0.70708975838611754 0.68874830945910626 -0.16000528938682426 0.70712380357718263 0.22628709790964169 0.97406064971316464 0 4.9498666307775459 3.5
1 -53.75257147155164 10.000000456472868 3.0134878162126597 0 0 1 
3 -57.25257147155164 10.00000045647287 80.01348781621266 -0.68878147154003466 0.16001299337430813 0.70708975838611754 0.68874830945910626 -0.16000528938682426 0.70712380357718263 0.22628709790964169 0.97406064971316464 0 4.9498666307775459 3.5
3 -57.25257147155164 10.00000045647287 80.01348781621266 -0.68878147154003466 0.16001299337430813 0.70708975838611754 0.68874830945910626 -0.16000528938682426 0.70712380357718263 0.22628709790964169 0.97406064971316464 0 4.9498666307775459 3.5
3 -57.25257147155164 10.00000045647287 80.01348781621266 0.68874830945910626 -0.16000528938682426 0.70712380357718263 -0.68878147154003466 0.16001299337430813 0.70708975838611754 -0.22628709790964166 -0.97406064971316453 -1.3877787807814457e-17 4.9496283144398134 3.5
2 -57.25257147155164 10.00000045647287 3.0134878162126597 0 0 1 1 0 -0 -0 1 0 3.5
3 -57.25257147155164 10.00000045647287 13.01348781621266 0 0.70710678118654757 0.70710678118654757 0 -0.70710678118654746 0.70710678118654746 1 0 -0 4.9497474683058327 3.5
3 -57.25257147155164 10.00000045647287 13.01348781621266 0 0.70710678118654757 0.70710678118654757 0 -0.70710678118654746 0.70710678118654746 1 0 -0 4.9497474683058327 3.5
3 -57.25257147155164 10.00000045647287 13.01348781621266 0 -0.70710678118654757 0.70710678118654757 0 0.70710678118654746 0.70710678118654746 -1 0 0 4.9497474683058327 3.5
1 -57.25257147155164 -7.9999995435271298 86.01348781621266 -0 -1 0 
3 -57.25257147155164 -9.9999995435271298 86.01348781621266 -0.84366148773210747 0 -0.53687549219315922 -0.53687549219315922 0 0.84366148773210747 0 1 0 6.51920240520265 3.5
1 -53.75257147155164 -9.9999995435271316 3.0134878162126597 0 0 1 
1 -53.75257147155164 -9.9999995435271316 3.0134878162126597 0 0 1 
3 -57.25257147155164 -9.9999995435271298 49.013487816212667 0.68878149055575277 0.1600129114819715 0.70708975839482935 -0.68874832849087975 -0.16000520750237296 0.70712380356847115 0.22628698210196424 -0.97406067661680362 0 4.9498666307165591 3.5
3 -57.25257147155164 -9.9999995435271298 49.013487816212667 -0.68874832849087975 -0.16000520750237296 0.70712380356847115 0.68878149055575277 0.16001291148197147 0.70708975839482946 -0.22628698210196418 0.97406067661680362 1.3877787807814457e-17 4.9496283145007904 3.5
3 -57.25257147155164 -9.9999995435271298 49.013487816212667 -0.68874832849087975 -0.16000520750237296 0.70712380356847115 0.68878149055575277 0.16001291148197147 0.70708975839482946 -0.22628698210196418 0.97406067661680362 1.3877787807814457e-17 4.9496283145007904 3.5
1 -53.75257147155164 -9.9999995435271316 3.0134878162126597 0 0 1 
2 -57.25257147155164 -9.9999995435271298 86.01348781621266 0 0 1 1 0 -0 -0 1 0 3.5
2 -57.25257147155164 -9.9999995435271298 86.01348781621266 0 0 1 1 0 -0 -0 1 0 3.5
3 -57.25257147155164 -9.9999995435271298 49.013487816212667 -0.68874832849087975 -0.16000520750237296 0.70712380356847115 0.68878149055575277 0.16001291148197147 0.70708975839482946 -0.22628698210196418 0.97406067661680362 1.3877787807814457e-17 4.9496283145007904 3.5
3 -57.25257147155164 -9.9999995435271298 49.013487816212667 0.68878149055575277 0.1600129114819715 0.70708975839482935 -0.68874832849087975 -0.16000520750237296 0.70712380356847115 0.22628698210196424 -0.97406067661680362 0 4.9498666307165591 3.5
2 -57.25257147155164 -9.9999995435271298 3.0134878162126597 0 0 1 1 0 -0 -0 1 0 3.5
3 -57.25257147155164 -9.9999995435271298 13.01348781621266 0 0.70710678118654757 0.70710678118654757 0 -0.70710678118654746 0.70710678118654746 1 0 -0 4.9497474683058327 3.5
3 -57.25257147155164 -9.9999995435271298 13.01348781621266 0 -0.70710678118654757 0.70710678118654757 0 0.70710678118654746 0.70710678118654746 -1 0 0 4.9497474683058327 3.5
3 -57.25257147155164 -9.9999995435271298 13.01348781621266 0 -0.70710678118654757 0.70710678118654757 0 0.70710678118654746 0.70710678118654746 -1 0 0 4.9497474683058327 3.5
1 -35.044582517259947 1.2475871715438995 80.014624690630285 -0.9740606485841552 0.22628709764735794 -4.8147170923862661e-05 
2 -34.252577674576202 4.6567994455399759 80.014624690630285 -0.97406064858415531 0.22628709764735799 -4.8147170923862668e-05 -0.22628709790964169 -0.97406064971316464 0 -4.6898264591948453e-05 1.0895083580920363e-05 0.99999999884092505 3.5
7 0 0  6 92 19  -34.574889113189229 3.2700763475824792 83.211985224903941  -34.605813921962167 3.3887672843033951 83.260345116764768  -34.634365718288961 3.5113687259709736 83.305334977440495  -34.660192732117771 3.6377984562374883 83.346519109337422  -34.682935847169439 3.7679405347226322 83.383431300398158  -34.702235365113694 3.9016433424349057 83.415570286252731  -34.724817112580162 4.101314100366257 83.454645108628227  -34.731102339774779 4.1645933385345115 83.465782790542605  -34.736556634798688 4.228500762535309 83.475751113121007  -34.74114710326414 4.2929809799656384 83.484496063993561  -34.744844772926115 4.3579777851819523 83.491966763412066  -34.752886285850657 4.5473311013198341 83.509753830130961  -34.754864290916515 4.6729821978368884 83.516665692329553  -34.753364213742756 4.7996761589765544 83.518481189275306  -34.748304248592198 4.9267156213854788 83.514954233537011  -34.739711594313157 5.053420226801447 83.505964417735711  -34.718116836617348 5.2797795967683188 83.479953063433655  -34.706344678735988 5.3796919715723321 83.464901372445695  -34.692480121544918 5.4785106743021794 83.446383435445256  -34.676646225084561 5.5758936163274475 83.424476022304248  -34.65900676982595 5.6715143012676545 83.399315506642168  -34.612322076263048 5.898444936237853 83.330871227453912  -34.581653554374974 6.0274442680057581 83.284483852692262  -34.54824035685715 6.1517183369630191 83.23238326848157  -34.512605245148968 6.2709699086303816 83.175076589849837  -34.475292291218658 6.3849500097186889 83.1131407352037  -34.406310684610652 6.5796617288163715 82.994870507728535  -34.375029327884079 6.6624940787030429 82.939952213566798  -34.343220347526803 6.7420075621472497 82.882696076413822  -34.31108273404832 6.8182578420567195 82.823308556743271  -34.278799757210393 6.8913061420775721 82.761981836396217  -34.221957684291802 7.0144899090940518 82.650823567259394  -34.197384738462794 7.0659502014012725 82.601721738404351  -34.172889193650398 7.115638907105688 82.551656965363719  -34.148534831985479 7.1635948241614935 82.500690793255956  -34.12438015261931 7.2098567648873715 82.448877678970291  -34.025010677249021 7.3953054327845127 82.230145225197745  -33.952025529186159 7.5197198219715808 82.055966797043041  -33.883256907529507 7.6288026366119208 81.875298953204634  -33.82006151678025 7.7234879589542507 81.689255698555144  -33.763553703652789 7.8045105652817801 81.498620876340283  -33.662594075027357 7.9446088195663513 81.096586250030143  -33.619170930348545 8.0019044225455929 80.88463340698911  -33.585686688466097 8.0445917178695225 80.669392906700551  -33.563041811577904 8.0729711443689514 80.451973178951334  -33.551702395427803 8.0871823155069098 80.233385719504412  -33.551702395427803 8.0871823155069098 79.897405701463043  -33.554957681846993 8.0831025491530006 79.780200857480224  -33.561467588965634 8.0749442416100017 79.663174423768282  -33.571191928818848 8.0626974285061088 79.546499398688866  -33.584052001068521 8.0463425105526873 79.430353204514432  -33.613813285494437 8.0079391784479146 79.214006252495949  -33.630001968843402 7.9868667186323439 79.113641851091757  -33.64842362819418 7.9626115857605528 79.013919814275653  -33.668986207861408 7.9351415480461744 78.914942363836218  -33.691580364455376 7.9044160074975052 78.816818944025243  -33.780398976863005 7.7810516702305117 78.464614363671473  -33.857745363422147 7.6690967437948654 78.216678664166125  -33.945999314991617 7.5334632692785108 77.976968227773838  -34.042604057325597 7.3722183103602044 77.747270816709033  -34.144181520877417 7.1828734365188662 77.530574906050674  -34.278094524033108 6.8928866594526044 77.268565000781848  -34.31033715800217 6.8199924309237208 77.207282198242581  -34.342437480000854 6.7439055417075098 77.147930795445461  -34.374213188656938 6.6645647707437856 77.090701949538385  -34.405466328461863 6.5819143933263655 77.035801066841373  -34.473868242592701 6.389127729826602 76.918454407322614  -34.510661500833692 6.2770527035324202 76.857314087245101  -34.545842565363465 6.1598617178514354 76.800646770478068  -34.578893659451197 6.0377848456909486 76.74900201712444  -34.609315481174143 5.9110971855522498 76.702866003459832  -34.656571951683247 5.6845966289536545 76.633353840929033  -34.674839282600146 5.5868702530202219 76.607220984648109  -34.691227331725706 5.4872676678196184 76.584488174151971  -34.705557824842622 5.3861382043533386 76.565305363630202  -34.717697061499734 5.2838484180430205 76.549756961961805  -34.739743614767733 5.0534878949802806 76.523177075966515  -34.748440458535256 4.9251686950315863 76.514084745703286  -34.753513219121182 4.796508119219058 76.51059592033053  -34.754934263427273 4.6682125909097687 76.512584816972691  -34.752790572784086 4.5410063431989949 76.519793544763672  -34.744409850135014 4.3500646961252887 76.538130448415401  -34.740612085194797 4.2849688891261666 76.545751082384214  -34.735919755498912 4.2203974735130192 76.554647706606232  -34.730362265427651 4.1564063228416197 76.564768935824219  -34.72397290557479 4.0930504661288056 76.576060315331858  -34.701238631736537 3.8947397578900955 76.61531337592811  -34.681975421404125 3.7624173912161005 76.64735702925276  -34.659343563071076 3.6335979875839577 76.684070021221373  -34.633692803019137 3.5084263072199717 76.724965687152945  -34.605371861696277 3.3870127323085382 76.769591646573758  -34.574722002921817 3.2694351284773862 76.817525492379389 
 0 7 0.053904534121616311 5 0.078520629912407519 5 0.125114396127356 5 0.16241991963309452 5 0.215609871887496 5 0.25786429164706909 5 0.29006027192420103 5 0.39171614490965967 5 0.50002652793094338 5 0.55805918754829698 5 0.60879036910828965 5 0.74197353586200165 5 0.78416781797220514 5 0.83654945488979371 5 0.87474959736115221 5 0.92192802839308308 5 0.94659884798194804 5 1 7
2 -34.252577674576202 4.6567994455399759 80.014624690630285 -0.97406064858415531 0.22628709764735799 -4.8147170923862668e-05 -0.22628709790964169 -0.97406064971316464 0 -4.6898264591948453e-05 1.0895083580920363e-05 0.99999999884092505 3.5
1 -57.25257147155164 -9.9999995435271298 16.51348781621266 0 1 0 
1 -33.460560831170206 -8.0660109007530476 49.012350941795034 -0.9740606754877954 -0.22628698183968091 4.8147146283429873e-05 
7 0 0  6 47 10  -34.574876615229876 -3.2700750818807607 45.814990551249693  -34.605801446869506 -3.3887660741227901 45.766630621456272  -34.634353264257513 -3.5113675761734839 45.721640726261754  -34.660180296720718 -3.6377973715641398 45.680456563978808  -34.682923427341159 -3.7679395197220971 45.643544347435522  -34.702222957150688 -3.9016424013862641 45.611405341837056  -34.724804713089128 -4.1013132505134067 45.572330504742482  -34.731089940862702 -4.1645925021956671 45.56119282182199  -34.736544236098666 -4.228499939945908 45.551224498878454  -34.741134704392834 -4.2929801713328475 45.542479548306005  -34.744832373484407 -4.3579769906174297 45.535008849879929  -34.752873886257142 -4.5473304108028696 45.51722178215654  -34.754851887329409 -4.6729815993701642 45.510309924626327  -34.753351800964218 -4.7996756528014961 45.508494440445247  -34.748291821425084 -4.9267152060167998 45.512021417323126  -34.739699147913043 -5.0534198990932113 45.521011262476364  -34.718104341998064 -5.2797794823028301 45.54702269065551  -34.706332153907198 -5.3796919831646752 45.562074427813329  -34.692467561622976 -5.4785108065250672 45.580592419852564  -34.676633625889828 -5.5758938626521042 45.602499896264234  -34.658994128055014 -5.6715146541464359 45.62766048251018  -34.612309423428663 -5.8984450518003628 45.696104804371089  -34.581640953335935 -6.0274440641543512 45.742492114143914  -34.548227822598705 -6.151717832709787 45.794592604868754  -34.512592789153253 -6.2709691255578486 45.851899164681583  -34.475279921184054 -6.3849489715001235 45.913834879101486  -34.406298416278119 -6.5796604459040511 46.032104927027703  -34.375017090777249 -6.6624927339981985 46.087023162231958  -34.343208137263581 -6.7420061684340675 46.14427924678003  -34.311070538071718 -6.8182564332435174 46.203666734352282  -34.278787570326699 -6.8913047345582035 46.264993428792053  -34.221945585160945 -7.0144883459644101 46.376151508542989  -34.197372699755597 -7.0659485299104459 46.425253205809014  -34.17287721435796 -7.1156371357311583 46.47531784302798  -34.148522910664866 -7.1635929610849098 46.526283875491885  -34.124368287439943 -7.2098548180049695 46.578096846660358  -34.02499892935915 -7.3953033690168368 46.796828927903903  -33.952013830342054 -7.5197177462641696 46.971007120135482  -33.883245239382092 -7.6288005750941981 47.15167472173745  -33.820049858005255 -7.7234859359826684 47.337717730129896  -33.763542030665583 -7.8045086042356742 47.528352303761565  -33.662582153473615 -7.944607267177493 47.930387081866982  -33.619158826299227 -8.0019031243496581 48.142340356202624  -33.585674439541684 -8.0445906078152358 48.357581308927905  -33.563029463176683 -8.072970159109639 48.575001503067682  -33.551689997065516 -8.087181392927663 48.793589436733114  -33.551689997065516 -8.087181392927663 49.012355446246744 
 0 7 0.1078033716669502 5 0.15703294434868387 5 0.2502155674372275 5 0.32482273113200161 5 0.43119671982861985 5 0.51570102429126541 5 0.58008942316722523 5 0.78339021193382385 5 1 7
2 -34.252565268527079 -4.6567985325942356 49.012350941795034 -0.9740606754877954 -0.22628698183968085 4.8147146283429873e-05 0.22628698210196418 -0.97406067661680362 -1.6940658945086003e-21 4.6898241886005926e-05 1.0895072429299146e-05 0.99999999884092616 3.5
7 0 0  6 47 10  -33.551689997065516 -8.087181392927663 49.012355446246744  -33.551689997065516 -8.087181392927663 49.232107171624293  -33.563131878278099 -8.0728418055560454 49.451676709509179  -33.585980596504143 -8.0442069236191376 49.670062499787292  -33.619761626725122 -8.0011345398160589 49.886240603976361  -33.663558768054152 -7.9433183706949118 50.099087927197751  -33.764856950434833 -7.8026205776185558 50.500779510063111  -33.821170776713899 -7.7217999744222867 50.6902694157585  -33.884081975235084 -7.6274595748597331 50.875206958415234  -33.952492972565373 -7.518874863582349 51.054819670237926  -34.02506879008267 -7.3951261421962915 51.228011301555661  -34.123956831025168 -7.2106374438417529 51.44575984238665  -34.148060618789778 -7.164491387058562 51.497483826204508  -34.172363994566943 -7.1166584688209635 51.54836487246908  -34.196808849498645 -7.0671001054700922 51.598348912717491  -34.221331839690649 -7.0157777324041657 51.647374817271178  -34.278082693500949 -6.8928844551649044 51.758411681283754  -34.310325334234506 -6.8199901603429209 51.819694472979762  -34.3424256608318 -6.7439032023079877 51.879045861919167  -34.374201371570408 -6.6645623601469364 51.936274690545417  -34.40545451058685 -6.5819119093379976 51.991175552150132  -34.473856393337556 -6.3891251399678337 52.10852211664362  -34.51064962054064 -6.277050086235719 52.169662365066472  -34.545830650291123 -6.1598590773684245 52.226329608215686  -34.578881706023836 -6.0377821874759219 52.277974286232002  -34.609303486228356 -5.9110945162755302 52.324110223374788  -34.656559856192395 -5.684594071369494 52.393622216974642  -34.67482713327864 -5.5868678202506041 52.41975498876841  -34.691215132522409 -5.4872653686995685 52.442487723727645  -34.705545580775492 -5.3861360464724291 52.461670468687231  -34.717684778440194 -5.2838464076311435 52.477218815438071  -34.739731273378517 -5.053486074683077 52.503798620560197  -34.748428093082026 -4.9251669167146792 52.512890917565528  -34.753500831911204 -4.7965063861836779 52.516379713833231  -34.75492185716935 -4.6682109055587686 52.514390792462059  -34.752778150393411 -4.5410047069504298 52.507182044294233  -34.744397407029744 -4.3500631224541824 52.488845114604743  -34.74059963504132 -4.2849673288753509 52.481224471490044  -34.735907298740322 -4.2203959269255753 52.472327838710363  -34.730349802512166 -4.1564047900995451 52.462206601507006  -34.723960436949682 -4.0930489473510168 52.450915214564411  -34.701226147774136 -3.8947382951442129 52.411662134404054  -34.681962930049579 -3.7624159698598381 52.379618471722885  -34.659331066837794 -3.6335966069189678 52.342905473298082  -34.63368030423608 -3.5084249663313387 52.302009803449671  -34.605359362455587 -3.3870114299658707 52.257383842261902  -34.57470950499625 -3.269433863079394 52.209449996358728 
 0 7 0.21756069937856823 5 0.41970915520651675 5 0.48396448282128413 5 0.56835025533660855 5 0.67311000157730072 5 0.74950762025077067 5 0.84386130067455889 5 0.89320128568215817 5 1 7
3 -29.252577674576198 4.6567994455399759 -101074.49039539479 -0.9740606485841552 0.22628709764735797 -4.8147170923862668e-05 -4.6898264591948446e-05 1.0895083580920361e-05 0.99999999884092494 0.22628709790964166 0.97406064971316453 1.6940658945086007e-21 114233.08772798725 5.5
1 -23.752577674576198 4.6567994455399742 76.014624690630285 0 0 1 
2 -29.252577674576198 4.6567994455399759 76.014624690630285 0 0 1 1 0 -0 -0 1 0 5.5
2 -29.252577674576198 4.6567994455399759 84.014624690630285 0 0 1 1 0 -0 -0 1 0 5.5
1 -23.752565268527082 -4.6567985325942374 45.012350941795034 0 0 1 
2 -29.252565268527082 -4.6567985325942356 45.012350941795034 0 0 1 1 0 -0 -0 1 0 5.5
2 -29.252565268527082 -4.6567985325942356 53.012350941795034 0 0 1 1 0 -0 -0 1 0 5.5
3 -29.252565268527082 -4.6567985325942356 101203.57193311834 -0.97406067548779551 -0.22628698183968088 4.814714628342988e-05 4.6898241886005932e-05 1.0895072429299149e-05 0.99999999884092627 -0.22628698210196418 0.97406067661680362 1.6940658945086003e-21 114233.14618945251 5.5
2 -29.252577674576198 4.6567994455399759 76.014624690630285 0 0 1 1 0 -0 -0 1 0 3.1499999999999999
2 -29.252577674576198 4.6567994455399759 84.014624690630285 0 0 1 1 0 -0 -0 1 0 3.1499999999999999
2 -29.252565268527082 -4.6567985325942356 45.012350941795034 0 0 1 1 0 -0 -0 1 0 3.1499999999999999
2 -29.252565268527082 -4.6567985325942356 53.012350941795034 0 0 1 1 0 -0 -0 1 0 3.1499999999999999
1 -26.102577674576199 4.656799445539975 75.014624690630285 0 0 1 
1 -26.102565268527083 -4.6567985325942365 44.012350941795034 0 0 1 
1 -28 -10 -12.050000000000001 0 0 1 
1 -28 -10 -8.0500000000000007 0 1 0 
1 -28 10 -12.050000000000001 0 0 1 
1 -28 -10 -12.050000000000001 0 1 0 
1 -28 -10 -12.050000000000001 1 0 0 
1 -12 -10 -12.050000000000001 0 0 1 
1 -28 -10 -8.0500000000000007 1 0 0 
1 -28 10 -8.0500000000000007 1 0 0 
1 -12 -10 -8.0500000000000007 0 1 0 
2 -20 -6 -8.0500000000000007 0 0 1 1 0 -0 -0 1 0 1.7
2 -20 6 -8.0500000000000007 0 0 1 1 0 -0 -0 1 0 1.7
1 -28 10 -12.050000000000001 1 0 0 
1 -12 10 -12.050000000000001 0 0 1 
1 -12 -10 -12.050000000000001 0 1 0 
2 -20 -6 -12.050000000000001 0 0 1 1 0 -0 -0 1 0 1.7
2 -20 6 -12.050000000000001 0 0 1 1 0 -0 -0 1 0 1.7
1 -18.300000000000001 -6 -12.15 0 0 1 
1 -18.300000000000001 6 -12.15 0 0 1 
Polygon3D 0
PolygonOnTriangulations 0
Surfaces 41
1 -36.25257147155164 -9.6567985325942356 95.01348781621266 1 0 0 0 0 1 0 -1 0 
2 -35.25257147155164 6.0000004564728702 100.01348781621266 -0.84366148773210747 0 -0.53687549219315922 0.53687549219315922 0 -0.84366148773210747 0 -1 -0 3.5
2 -35.25257147155164 -5.9999995435271298 100.01348781621266 -0.84366148773210747 0 -0.53687549219315922 0.53687549219315922 0 -0.84366148773210747 0 -1 -0 3.5
1 -36.25257147155164 -9.6567985325942356 95.01348781621266 0 1 0 0 0 1 1 0 0 
1 -36.25257147155164 -9.6567985325942356 105.01348781621266 0 0 1 1 0 0 0 1 0 
2 -29.252565268527082 -4.6567985325942356 23.012350941795034 0 0 1 1 0 -0 -0 1 0 3.1499999999999999
2 -29.252577674576198 4.6567994455399759 23.014624690630285 0 0 1 1 0 -0 -0 1 0 3.1499999999999999
1 -36.25257147155164 -9.6567985325942356 95.01348781621266 0 0 1 1 0 0 0 1 0 
1 -36.25257147155164 9.6567994455399759 95.01348781621266 0 1 0 0 0 1 1 0 0 
2 -57.25257147155164 10.00000045647287 3.0134878162126597 0 0 1 1 0 -0 -0 1 0 3.5
1 -35.25257147155164 6.0000004564728702 100.01348781621266 -0.84366148773210747 0 -0.53687549219315922 0.53687549219315922 0 -0.84366148773210747 0 -1 -0 
2 -57.25257147155164 -9.9999995435271298 3.0134878162126597 0 0 1 1 0 -0 -0 1 0 3.5
1 -35.25257147155164 -5.9999995435271298 100.01348781621266 -0.84366148773210747 0 -0.53687549219315922 0.53687549219315922 0 -0.84366148773210747 0 -1 -0 
1 -22.25257147155164 -9.6567985325942356 95.01348781621266 1 0 0 0 0 1 0 -1 0 
1 -57.25257147155164 6.0000004564728702 86.01348781621266 -0.84366148773210747 0 -0.53687549219315922 0.53687549219315922 0 -0.84366148773210747 0 -1 -0 
1 -57.25257147155164 10.00000045647287 86.01348781621266 0 0 1 1 0 -0 -0 1 0 
2 -34.252577674576202 4.6567994455399759 80.014624690630285 -0.9740606485841552 0.22628709764735794 -4.8147170923862661e-05 -0.22628709790964169 -0.97406064971316464 0 -4.6898264591948453e-05 1.0895083580920363e-05 0.99999999884092505 3.5
2 -57.25257147155164 -9.9999995435271298 13.01348781621266 0 1 0 0 -0 1 1 0 -0 3.5
1 -57.25257147155164 -5.9999995435271298 86.01348781621266 -0.84366148773210747 0 -0.53687549219315922 0.53687549219315922 0 -0.84366148773210747 0 -1 -0 
2 -34.252565268527079 -4.6567985325942356 49.012350941795034 -0.9740606754877954 -0.22628698183968091 4.8147146283429873e-05 0.22628698210196421 -0.97406067661680373 0 4.6898241886005932e-05 1.0895072429299149e-05 0.99999999884092627 3.5
1 -57.25257147155164 -9.9999995435271298 86.01348781621266 0 0 1 1 0 -0 -0 1 0 
2 -29.252577674576198 4.6567994455399759 76.014624690630285 0 0 1 1 0 -0 -0 1 0 5.5
1 -57.25257147155164 10.00000045647287 3.0134878162126597 0 0 1 1 0 -0 -0 1 0 
2 -29.252565268527082 -4.6567985325942356 45.012350941795034 0 0 1 1 0 -0 -0 1 0 5.5
1 -57.25257147155164 -9.9999995435271298 3.0134878162126597 0 0 1 1 0 -0 -0 1 0 
1 -34.252577674576202 4.6567994455399759 80.014624690630285 -0.9740606485841552 0.22628709764735794 -4.8147170923862661e-05 -0.22628709790964169 -0.97406064971316464 0 -4.6898264591948453e-05 1.0895083580920363e-05 0.99999999884092505 
1 -34.252565268527079 -4.6567985325942356 49.012350941795034 -0.9740606754877954 -0.22628698183968091 4.8147146283429873e-05 0.22628698210196421 -0.97406067661680373 0 4.6898241886005932e-05 1.0895072429299149e-05 0.99999999884092627 
1 -29.252577674576198 4.6567994455399759 76.014624690630285 0 0 1 1 0 -0 -0 1 0 
2 -29.252577674576198 4.6567994455399759 75.014624690630285 0 0 1 1 0 -0 -0 1 0 3.1499999999999999
1 -29.252577674576198 4.6567994455399759 84.014624690630285 0 0 1 1 0 -0 -0 1 0 
1 -29.252565268527082 -4.6567985325942356 45.012350941795034 0 0 1 1 0 -0 -0 1 0 
2 -29.252565268527082 -4.6567985325942356 44.012350941795034 0 0 1 1 0 -0 -0 1 0 3.1499999999999999
1 -29.252565268527082 -4.6567985325942356 53.012350941795034 0 0 1 1 0 -0 -0 1 0 
1 -28 -10 -12.050000000000001 1 0 0 0 0 1 0 -1 0 
1 -28 -10 -8.0500000000000007 0 0 1 1 0 0 0 1 0 
1 -28 -10 -12.050000000000001 0 0 1 1 0 0 0 1 0 
1 -28 -10 -12.050000000000001 0 1 0 0 0 1 1 0 0 
2 -20 -6 -12.15 0 0 1 1 0 -0 -0 1 0 1.7
2 -20 6 -12.15 0 0 1 1 0 -0 -0 1 0 1.7
1 -28 10 -12.050000000000001 0 1 0 0 0 1 1 0 0 
1 -12 -10 -12.050000000000001 1 0 0 0 0 1 0 -1 0 
Triangulations 0

TShapes 288
Ve
1e-07
-36.2525714715516 -9.65679853259424 105.013487816213
0 0

0101101
*
Ve
1e-07
-36.2525714715516 -9.65679853259424 95.0134878162127
0 0

0101101
*
Ed
 1e-07 1 1 0
1  1 0 0 10
0

0101000
-288 3 +287 3 *
Ve
1e-07
-36.2525714715516 9.65679944553998 105.013487816213
0 0

0101101
*
Ed
 1e-07 1 1 0
1  2 0 0 19.3135979781342
0

0101000
-285 3 +288 3 *
Ve
1e-07
-36.2525714715516 9.65679944553998 95.0134878162127
0 0

0101101
*
Ed
 1e-07 1 1 0
1  3 0 0 19.3135979781342
0

0101000
-283 3 +287 3 *
Ed
 1e-07 1 1 0
1  4 0 0 10
0

0101000
-285 3 +283 3 *
Wi

0101100
-286 2 -284 2 +282 2 +281 2 *
Ve
1.00000001776357e-07
-36.2525714715516 6.00000045647287 95.2285408310837
0 0

0101101
*
Ve
1.5e-07
-36.2525714715516 8.96321024400023 101.584916387641
0 0

0101101
*
Ed
 1e-07 1 1 0
1  5 0 0 2.13196947524063
2  1 2 0 0 2.13196947524063
0

0101000
+279 0 -278 0 *
Ve
1.5e-07
-36.2525714715516 3.03679066894551 101.584916387641
0 0

0101101
*
Ed
 1.5e-07 1 1 0
1  6 0 4.86518970700619 10.7916092820609
0

0101000
+276 0 -278 0 *
Ed
 1e-07 1 1 0
1  7 0 4.15121583193896 6.28318530717959
2  2 2 0 4.15121583193896 6.28318530717959
0

0101000
+276 0 -279 0 *
Wi

0101100
-277 0 +275 0 -274 0 *
Ve
1.00000001776357e-07
-36.2525714715516 -5.99999954352713 95.2285408310837
0 0

0101101
*
Ve
1.5e-07
-36.2525714715516 -3.03678975599977 101.584916387641
0 0

0101101
*
Ed
 1e-07 1 1 0
1  8 0 0 2.13196947524063
2  3 3 0 0 2.13196947524063
0

0101000
+272 0 -271 0 *
Ve
1.5e-07
-36.2525714715516 -8.96320933105449 101.584916387641
0 0

0101101
*
Ed
 1e-07 1 1 0
1  9 0 4.15121583193896 6.28318530717959
2  4 3 0 4.15121583193896 6.28318530717959
0

0101000
+269 0 -272 0 *
Ed
 1.5e-07 1 1 0
1  10 0 -1.13481029299381 4.79160928206092
0

0101000
+269 0 -271 0 *
Wi

0101100
-270 0 -268 0 +267 0 *
Fa
0  1e-07 1 2

0101000
+280 0 +273 0 +266 0 *
Ve
1e-07
-22.2525714715516 -9.65679853259424 95.0134878162127
0 0

0101101
*
Ed
 1e-07 1 1 0
1  11 0 0 14
0

0101000
-264 3 +287 3 *
Ve
1e-07
-22.2525714715516 -9.65679853259424 105.013487816213
0 0

0101101
*
Ed
 1e-07 1 1 0
1  12 0 0 10
0

0101000
-262 3 +264 3 *
Ed
 1e-07 1 1 0
1  13 0 0 14
0

0101000
-262 3 +288 3 *
Wi

0101100
-263 0 -261 0 +260 0 +286 0 *
Fa
0  1e-07 4 0

0111000
+259 0 *
Ve
1e-07
-22.2525714715516 9.65679944553998 105.013487816213
0 0

0101101
*
Ed
 1e-07 1 1 0
1  14 0 0 14
0

0101000
-257 3 +285 3 *
Ed
 1e-07 1 1 0
1  15 0 0 19.3135979781342
0

0101000
-257 3 +262 3 *
Wi

0101100
-284 2 -256 2 +260 2 +255 2 *
Ve
1.00000000888178e-07
-26.1025652685271 -4.65679853259424 105.013487816213
0 0

0101101
*
Ed
 1e-07 1 1 0
1  16 0 0 6.28318530717959
2  5 6 0 0 6.28318530717959
0

0101100
+253 0 -253 0 *
Wi

0101100
-252 0 *
Ve
1.00000000888178e-07
-26.1025776745762 4.65679944553998 105.013487816213
0 0

0101101
*
Ed
 1e-07 1 1 0
1  17 0 0 6.28318530717959
2  6 7 0 0 6.28318530717959
0

0101100
+250 0 -250 0 *
Wi

0101100
-249 0 *
Fa
0  1e-07 5 2

0101000
+254 0 +251 0 +248 0 *
Ve
1e-07
-22.2525714715516 9.65679944553998 95.0134878162127
0 0

0101101
*
Ed
 1e-07 1 1 0
1  18 0 0 14
0

0101000
-246 3 +283 3 *
Ed
 1e-07 1 1 0
1  19 0 0 19.3135979781342
0

0101000
-246 3 +264 3 *
Wi

0101100
-282 2 -245 2 +263 2 +244 2 *
Ve
1.00000000888178e-07
-26.1025652685271 -4.65679853259424 95.0134878162127
0 0

0101101
*
Ed
 1e-07 1 1 0
1  20 0 0 6.28318530717959
2  7 6 0 0 6.28318530717959
0

0101100
+242 0 -242 0 *
Wi

0101100
-241 0 *
Ve
1.00000000888178e-07
-26.1025776745762 4.65679944553998 95.0134878162127
0 0

0101101
*
Ed
 1e-07 1 1 0
1  21 0 0 6.28318530717959
2  8 7 0 0 6.28318530717959
0

0101100
+239 0 -239 0 *
Wi

0101100
-238 0 *
Fa
0  1e-07 8 2

0101000
+243 0 +240 0 +237 0 *
Ed
 1e-07 1 1 0
1  22 0 0 10
0

0101000
-257 3 +246 3 *
Wi

0101100
-245 0 -235 0 +256 0 +281 0 *
Fa
0  1e-07 9 0

0111000
+234 0 *
Ve
1e-07
-55.3735072488756 6.00000045647287 83.0606726091503
0 0

0101101
*
Ed
 1e-07 1 1 0
1  23 0 3.41258225549139 26.0768096208106
3  9 10CN 2 0 3.41258225549139 26.0768096208106
0

0101000
+279 0 -232 0 *
Ed
 1e-07 1 1 0
1  24 0 2.13196947524063 4.15121583193896
2  11 2 0 2.13196947524063 4.15121583193896
0

0101000
+276 0 -278 0 *
Ve
1.5e-07
-57.2525714715516 9.50000045647287 86.0134878162127
0 0

0101101
*
Ed
 1e-07 1 1 0
1  25 0 0 4.71238898038469
2  12 2 0 0 4.71238898038469
0

0101000
+232 0 -229 0 *
Ve
1.00000033704001e-07
-53.8981364050076 9.00111838918972 86.0134878162127
0 0

0101101
*
Ed
 1e-07 1 1 0
1  26 0 4.17190989225674 4.71238898038469
2  13 2 0 4.17190989225674 4.71238898038469
0

0101000
+227 0 -229 0 *
Ve
1.00000005329071e-07
-55.4516574941708 6.99888252375606 83.1834801374714
0 0

0101101
*
Ed
 1e-07 1 1 0
1  27 0 1.74786155651277e-07 0.999999825239441
2  14 2 0 1.74786155651277e-07 0.999999825239441
2  15 10 0 1.74786155651277e-07 0.999999825239441
0

0101000
+225 0 -227 0 *
Ed
 1e-07 1 1 0
1  28 0 5.99376689233076 6.28318530717959
2  12 2 0 5.99376689233076 6.28318530717959
0

0101000
+225 0 -232 0 *
Wi

0101100
+231 0 -277 0 +230 0 -274 0 -231 0 -228 0 +226 0 +224 0 -223 0 *
Fa
0  1e-07 2 0

0101000
+222 0 *
Wi

0101100
-275 0 +230 0 *
Fa
0  1e-07 11 0

0101000
+220 0 *
Ve
1e-07
-55.3735072488756 -5.99999954352713 83.0606726091503
0 0

0101101
*
Ed
 1e-07 1 1 0
1  29 0 3.41258225549139 26.0768096208106
3  16 17CN 3 0 3.41258225549139 26.0768096208106
0

0101000
+272 0 -218 0 *
Ed
 1e-07 1 1 0
1  30 0 2.13196947524063 4.15121583193896
2  18 3 0 2.13196947524063 4.15121583193896
0

0101000
+269 0 -271 0 *
Ve
1.00000007160723e-07
-55.4516574941708 -6.99888161081032 83.1834801374714
0 0

0101101
*
Ed
 1e-07 1 1 0
1  31 0 0 0.289418414848823
2  19 3 0 0 0.289418414848823
0

0101000
+218 0 -215 0 *
Ve
1.00000035393659e-07
-53.8981364050076 -9.00111747624398 86.0134878162127
0 0

0101101
*
Ed
 1e-07 1 1 0
1  32 0 1.74759742447088e-07 0.999999825214444
2  20 3 0 1.74759742447088e-07 0.999999825214444
2  21 12 0 1.74759742447088e-07 0.999999825214444
0

0101000
+215 0 -213 0 *
Ve
1.5e-07
-57.2525714715516 -9.49999954352713 86.0134878162127
0 0

0101101
*
Ed
 1e-07 1 1 0
1  33 0 1.5707963267949 2.11127541492284
2  22 3 0 1.5707963267949 2.11127541492284
0

0101000
+211 0 -213 0 *
Ed
 1e-07 1 1 0
1  34 0 1.5707963267949 6.28318530717959
2  19 3 0 1.5707963267949 6.28318530717959
0

0101000
+211 0 -218 0 *
Wi

0101100
+217 0 -270 0 +216 0 -268 0 -217 0 -214 0 -212 0 +210 0 -209 0 *
Fa
0  1e-07 3 0

0101000
+208 0 *
Wi

0101100
-267 0 +216 0 *
Fa
0  1e-07 13 0

0101000
+206 0 *
Wi

0101100
-261 0 -255 0 +235 0 +244 0 *
Fa
0  1e-07 14 0

0111000
+204 0 *
Ed
 1e-07 1 1 0
1  35 0 72.0011368744176 82.0011368744176
3  23 24CN 6 0 72.0011368744176 82.0011368744176
0

0101000
+242 0 -253 0 *
Wi

0101100
-252 0 +202 0 +241 0 -202 0 *
Fa
0  1e-07 6 0

0101000
+201 0 *
Ed
 1e-07 1 1 0
1  36 0 71.9988631255824 81.9988631255824
3  25 26CN 7 0 71.9988631255824 81.9988631255824
0

0101000
+239 0 -250 0 *
Wi

0101100
-249 0 +199 0 +238 0 -199 0 *
Fa
0  1e-07 7 0

0101000
+198 0 *
Ve
1.5e-07
-57.2525714715516 6.50000045647287 86.0134878162127
0 0

0101101
*
Ed
 1e-07 1 1 0
1  37 0 4.17190989225674 4.71238898038469
2  27 10 0 4.17190989225674 4.71238898038469
0

0101000
+225 0 -196 0 *
Ed
 1.5e-07 1 1 0
1  38 0 -1.5 1.5
0

0101000
+229 0 -196 0 *
Wi

0101100
+223 0 -195 0 +194 0 +228 0 *
Fa
0  1e-07 15 0

0101000
+193 0 *
Ve
1e-07
-53.7525714715516 10.0000004564729 86.0134878162127
0 0

0101101
*
Ed
 1e-07 1 1 0
1  39 0 5.99376689233077 6.28318530717959
2  28 10 0 5.99376689233077 6.28318530717959
0

0101000
+227 0 -191 0 *
Ed
 1e-07 1 1 0
1  40 0 0 4.71238898038469
2  28 10 0 0 4.71238898038469
0

0101000
+191 0 -196 0 *
Wi

0101100
+190 0 -226 0 -194 0 +189 0 *
Fa
0  1e-07 16 0

0101000
+188 0 *
Ve
1e-07
-53.7525714715516 10.0000004564729 3.01348781621266
0 0

0101101
*
Ve
1.50001e-07
-53.7525714715516 10.0000004564729 13.013487816212
0 0

0101101
*
Ed
 1e-07 1 1 0
1  41 0 0 9.99999999999935
3  29 30CN 10 0 0 9.99999999999935
0

0101000
+186 0 -185 0 *
Ve
1.00000193027144e-07
-53.7525714715516 10.0000004564729 76.6044396821911
0 0

0101101
*
Ed
 1e-07 1 1 0
1  42 0 9.99999999999935 73.5909518659785
3  29 30CN 10 0 9.99999999999935 73.5909518659785
0

0101000
+185 0 -183 0 *
Ve
1.47892364253314e-07
-56.4605666288679 13.4092127304689 80.0134878162127
0 0

0101101
*
Ed
 1e-07 1 1 0
1  43 0 3.36985686088136 4.71238898038469
2  31 10 0 3.36985686088136 4.71238898038469
2  32 17 0 3.36985686088136 4.71238898038469
0

0101000
+183 0 -181 0 *
Ve
1.00000028477166e-07
-53.7525714715516 10.0000004564729 83.4228642380866
0 0

0101101
*
Ed
 1e-07 1 1 0
1  44 0 0.228264207291574 1.57079631711941
2  33 10 0 0.228264207291574 1.57079631711941
2  34 17 0 0.228264207291574 1.57079631711941
0

0101000
+179 0 -181 0 *
Ed
 1e-07 1 1 0
1  45 0 80.4093764218739 83
3  29 30CN 10 0 80.4093764218739 83
0

0101000
+179 0 -191 0 *
Ve
1.00000001776357e-07
-53.8433591975556 9.20799561378912 83.5136563353679
0 0

0101101
*
Ed
 1e-07 1 1 0
1  46 0 0 0.228264207291574
2  35 10 0 0 0.228264207291574
2  36 17 0 0 0.228264207291574
0

0101000
+176 0 -179 0 *
Ve
1.00943262253186e-06
-58.0445763142354 6.59078818247679 80.0134878162127
0 0

0101101
*
Ed
 1e-07 1 1 0
1  47 0 4.71238879666482 6.28318530717959
2  37 10 0 4.71238879666482 6.28318530717959
2  38 17 0 4.71238879666482 6.28318530717959
0

0101000
+174 0 -176 0 *
Ed
 1e-07 1 1 0
1  48 0 1.57079614305734 3.36985686088136
2  39 10 0 1.57079614305734 3.36985686088136
2  40 17 0 1.57079614305734 3.36985686088136
0

0101000
+174 0 -183 0 *
Ed
 1e-07 1 1 0
1  49 0 0 6.28318530717959
2  41 10 0 0 6.28318530717959
0

0101000
+186 0 -186 0 *
Wi

0101100
-184 0 -182 0 -180 0 +178 0 -177 0 -189 0 +195 0 -224 0 -190 0 +177 0 
+175 0 +173 0 -172 0 +182 0 +184 0 +171 0 *
Ve
1e-07
-57.2525714715516 6.50000045647287 16.5134878162127
0 0

0101101
*
Ed
 1e-07 1 1 0
1  50 0 0 1.5707963267949
2  42 10 0 0 1.5707963267949
2  43 18 0 0 1.5707963267949
0

0101000
+169 0 -185 0 *
Ve
1.52573088933225e-07
-60.7525714715516 10.0000004564729 13.0134878162127
0 0

0101101
*
Ed
 1e-07 1 1 0
1  51 0 4.71238899100606 6.28318530717959
2  44 10 0 4.71238899100606 6.28318530717959
2  45 18 0 4.71238899100606 6.28318530717959
0

0101000
+167 0 -169 0 *
Ed
 1e-07 1 1 0
1  52 0 1.5707963267949 4.71238896976332
2  46 10 0 1.5707963267949 4.71238896976332
2  47 18 0 1.5707963267949 4.71238896976332
0

0101000
+167 0 -185 0 *
Wi

0101100
+168 0 +166 0 -165 0 *
Fa
0  1e-07 10 0

0101000
+170 0 +164 0 *
Ve
1.5e-07
-57.2525714715516 -6.49999954352713 86.0134878162127
0 0

0101101
*
Ed
 1.5e-07 1 1 0
1  53 0 -1.5 1.5
0

0101000
+162 0 -211 0 *
Ed
 1e-07 1 1 0
1  54 0 1.5707963267949 2.11127541492284
2  48 12 0 1.5707963267949 2.11127541492284
0

0101000
+162 0 -215 0 *
Wi

0101100
+209 0 +161 0 -160 0 +214 0 *
Fa
0  1e-07 19 0

0101000
+159 0 *
Ve
1e-07
-53.7525714715516 -9.99999954352713 3.01348781621266
0 0

0101101
*
Ve
1.00000653699317e-07
-53.7525714715516 -9.99999954352713 13.013487816212
0 0

0101101
*
Ed
 1e-07 1 1 0
1  55 0 0 9.99999999999935
3  49 50CN 12 0 0 9.99999999999935
0

0101000
+157 0 -156 0 *
Ve
1.00000028477166e-07
-53.7525714715516 -9.99999954352713 45.6041113002556
0 0

0101101
*
Ed
 1e-07 1 1 0
1  56 0 9.99999999999935 42.5906234840429
3  49 50CN 12 0 9.99999999999935 42.5906234840429
0

0101000
+156 0 -154 0 *
Ve
1.76327232375733e-07
-58.0445759089037 -6.59078717536719 49.0134879194509
0 0

0101101
*
Ed
 1e-07 1 1 0
1  57 0 2.91332856518987 4.7123889951323
2  51 12 0 2.91332856518987 4.7123889951323
2  52 20 0 2.91332856518987 4.7123889951323
0

0101000
+154 0 -152 0 *
Ve
1.00000001776357e-07
-53.8433591033928 -9.20799510617026 52.5133193052572
0 0

0101101
*
Ed
 1e-07 1 1 0
1  58 0 0 1.57079631655009
2  53 12 0 0 1.57079631655009
2  54 20 0 0 1.57079631655009
0

0101000
+150 0 -152 0 *
Ve
1.00000107112992e-07
-53.7525714715516 -9.99999954352713 52.4225360444761
0 0

0101101
*
Ed
 1e-07 1 1 0
1  59 0 6.05492121877966 6.28318530717959
2  55 12 0 6.05492121877966 6.28318530717959
2  56 20 0 6.05492121877966 6.28318530717959
0

0101000
+148 0 -150 0 *
Ve
1e-07
-53.7525714715516 -9.99999954352713 86.0134878162127
0 0

0101101
*
Ed
 1e-07 1 1 0
1  60 0 49.4090482282635 83
3  49 50CN 12 0 49.4090482282635 83
0

0101000
+148 0 -146 0 *
Ed
 1e-07 1 1 0
1  61 0 0 0.289418414848812
2  57 12 0 0 0.289418414848812
0

0101000
+146 0 -213 0 *
Ed
 1e-07 1 1 0
1  62 0 1.5707963267949 6.28318530717959
2  57 12 0 1.5707963267949 6.28318530717959
0

0101000
+162 0 -146 0 *
Ve
1.00298198619254e-06
-56.4605670341948 -13.4092119116859 49.0134878162127
0 0

0101101
*
Ed
 1e-07 1 1 0
1  63 0 4.71238879795039 6.05492121877966
2  58 12 0 4.71238879795039 6.05492121877966
2  59 20 0 4.71238879795039 6.05492121877966
0

0101000
+142 0 -148 0 *
Ed
 1e-07 1 1 0
1  64 0 1.57079614437816 2.91332856518987
2  60 12 0 1.57079614437816 2.91332856518987
2  61 20 0 1.57079614437816 2.91332856518987
0

0101000
+142 0 -154 0 *
Ed
 1e-07 1 1 0
1  65 0 0 6.28318530717959
2  62 12 0 0 6.28318530717959
0

0101000
+157 0 -157 0 *
Wi

0101100
-155 0 -153 0 -151 0 +149 0 +147 0 -145 0 -144 0 +212 0 +160 0 -143 0 
+145 0 +141 0 -140 0 +153 0 +155 0 +139 0 *
Ve
1.52573090189299e-07
-60.7525714715516 -9.99999954352713 13.0134878162127
0 0

0101101
*
Ed
 1e-07 1 1 0
1  66 0 1.57079632679499 4.71238896976332
2  63 12 0 1.57079632679499 4.71238896976332
2  64 18 0 1.57079632679499 4.71238896976332
0

0101000
+156 0 -137 0 *
Ve
1e-07
-57.2525714715516 -6.49999954352713 16.5134878162127
0 0

0101101
*
Ed
 1e-07 1 1 0
1  67 0 0 1.5707963267949
2  65 12 0 0 1.5707963267949
2  66 18 0 0 1.5707963267949
0

0101000
+135 0 -137 0 *
Ed
 1e-07 1 1 0
1  68 0 4.71238898038469 6.28318530717959
2  67 12 0 4.71238898038469 6.28318530717959
2  68 18 0 4.71238898038469 6.28318530717959
0

0101000
+156 0 -135 0 *
Wi

0101100
-136 0 +134 0 +133 0 *
Fa
0  1e-07 12 0

0101000
+138 0 +132 0 *
Wi

0101100
+143 0 -161 0 -210 0 +144 0 *
Fa
0  1e-07 21 0

0101000
+130 0 *
Ve
1e-07
-35.0445825172599 1.2475871715439 80.0146246906303
0 0

0101101
*
Ed
 1e-07 1 1 0
1  69 0 0 23.6124863789612
3  69 70CN 17 0 0 23.6124863789612
0

0101000
-174 0 +128 0 *
Ve
1.91408936847993e-07
-34.5747223286178 3.26943637789826 76.8175249830177
0 0

0101101
*
Ed
 1e-07 1 1 0
1  70 0 5.1314852807757 6.28318530717959
2  71 17 0 5.1314852807757 6.28318530717959
0

0101000
+126 0 -128 0 *
Ve
1.9140893689749e-07
-34.5748894388361 3.27007759743166 83.2119857341471
0 0

0101101
*
Ed
 1.91408928903884e-07 1 1 0
1  71 0 9.46049885391614e-08 0.999999905423451
2  72 17 0 9.46049885391614e-08 0.999999905423451
2  73 22 0 9.46049885391614e-08 0.999999905423451
0

0101000
+124 0 -126 0 *
Ed
 1e-07 1 1 0
1  72 0 0 1.15188355144204
2  71 17 0 0 1.15188355144204
0

0101000
+128 0 -124 0 *
Wi

0101100
-173 0 -175 0 -178 0 +180 0 +172 0 +127 0 +125 0 +123 0 +122 0 -127 0 
*
Fa
0  1e-07 17 0

0101000
+121 0 *
Wi

0101100
-171 0 *
Fa
0  1e-07 23 0

0111000
-119 0 *
Ed
 1e-07 1 1 0
1  73 0 3.5 16.5
3  74 75CN 18 0 3.5 16.5
0

0101000
+135 0 -169 0 *
Wi

0101100
+165 0 -166 0 +117 0 -134 0 +136 0 -133 0 -117 0 -168 0 *
Fa
0  1e-07 18 0

0101000
+116 0 *
Ve
2.00001e-07
-33.5516899970655 -8.08718139292766 49.0123554462467
0 0

0101101
*
Ed
 1e-07 1 1 0
1  74 0 0.0935559438837532 23.6124984632056
3  76 77CN 20 0 0.0935559438837532 23.6124984632056
0

0101000
+114 0 -142 0 *
Ve
1.9138644071128e-07
-34.5748769408768 -3.27007633173005 45.8149900420064
0 0

0101101
*
Ed
 1.91386439110094e-07 1 1 0
1  75 0 1.89199906696951e-07 1
2  78 20 0 1.89199906696951e-07 1
2  79 24 0 1.89199906696951e-07 1
0

0101000
+112 0 -114 0 *
Ve
1.89856441517822e-07
-34.5747098306924 -3.26943511250037 52.2094505057206
0 0

0101101
*
Ed
 1e-07 1 1 0
1  76 0 1.98989272807036 4.29347610407693
2  80 20 0 1.98989272807036 4.29347610407693
0

0101000
+110 0 -112 0 *
Ed
 1.89856427134541e-07 1 1 0
1  77 0 0 0.999999810853184
2  81 20 0 0 0.999999810853184
2  82 24 0 0 0.999999810853184
0

0101000
+114 0 -110 0 *
Wi

0101100
-141 0 -147 0 -149 0 +151 0 +140 0 +113 0 +111 0 +109 0 +108 0 -113 0 
*
Fa
0  1e-07 20 0

0101000
+107 0 *
Wi

0101100
-139 0 *
Fa
0  1e-07 25 0

0111000
-105 0 *
Ed
 1e-07 1 1 0
1  78 0 5.79991859710968 5.80003907663582
2  83 22 0 5.79991859710968 5.80003907663582
0

0101000
+126 0 -124 0 *
Wi

0101100
+125 0 -103 0 +122 0 *
Fa
0  1e-07 26 0

0101000
+102 0 *
Ve
1e-07
-23.7525776745762 4.65679944553997 84.0146246906303
0 0

0101101
*
Ve
1e-07
-23.7525776745762 4.65679944553997 76.0146246906303
0 0

0101101
*
Ed
 1e-07 1 1 0
1  79 0 0 8
3  84 85CN 22 0 0 8
0

0101000
-100 0 +99 0 *
Ed
 1e-07 1 1 0
1  80 0 0 6.28318530717959
2  86 22 0 0 6.28318530717959
0

0101000
+99 0 -99 0 *
Ed
 1e-07 1 1 0
1  81 0 0 6.28318530717959
2  87 22 0 0 6.28318530717959
0

0101000
+100 0 -100 0 *
Wi

0101100
+98 0 +97 0 -98 0 -96 0 *
Wi

0101100
-123 0 -103 0 *
Fa
0  1e-07 22 0

0101000
+95 0 +94 0 *
Ve
1e-07
-23.7525652685271 -4.65679853259424 53.012350941795
0 0

0101101
*
Ve
1e-07
-23.7525652685271 -4.65679853259424 45.012350941795
0 0

0101101
*
Ed
 1e-07 1 1 0
1  82 0 0 8
3  88 89CN 24 0 0 8
0

0101000
-92 0 +91 0 *
Ed
 1e-07 1 1 0
1  83 0 0 6.28318530717959
2  90 24 0 0 6.28318530717959
0

0101000
+91 0 -91 0 *
Ed
 1e-07 1 1 0
1  84 0 0 6.28318530717959
2  91 24 0 0 6.28318530717959
0

0101000
+92 0 -92 0 *
Wi

0101100
+90 0 +89 0 -90 0 -88 0 *
Ed
 1e-07 1 1 0
1  85 0 2.65832599618783 2.65844647565898
2  92 24 0 2.65832599618783 2.65844647565898
0

0101000
+110 0 -112 0 *
Wi

0101100
-108 0 -86 0 -111 0 *
Fa
0  1e-07 24 0

0101000
+87 0 +85 0 *
Wi

0101100
-86 0 +109 0 *
Fa
0  1e-07 27 0

0101000
+83 0 *
Wi

0101100
+97 0 *
Ve
1.00000003552714e-07
-26.1025776745762 4.65679944553998 76.0146246906303
0 0

0101101
*
Ed
 1.00000000666134e-07 1 1 0
1  86 0 0 6.28318530717959
2  93 29 0 0 6.28318530717959
0

0101100
+80 0 -80 0 *
Wi

0101100
-79 0 *
Fa
0  1e-07 28 0

0101000
+81 0 +78 0 *
Wi

0101100
+96 0 *
Ve
1.00000003552714e-07
-26.1025776745762 4.65679944553998 84.0146246906303
0 0

0101101
*
Ed
 1.00000000666134e-07 1 1 0
1  87 0 0 6.28318530717959
2  94 29 0 0 6.28318530717959
0

0101100
+75 0 -75 0 *
Wi

0101100
-74 0 *
Fa
0  1e-07 30 0

0101000
+76 0 +73 0 *
Wi

0101100
+89 0 *
Ve
1.00000000888178e-07
-26.1025652685271 -4.65679853259424 45.012350941795
0 0

0101101
*
Ed
 1e-07 1 1 0
1  88 0 0 6.28318530717959
2  95 32 0 0 6.28318530717959
0

0101100
+70 0 -70 0 *
Wi

0101100
-69 0 *
Fa
0  1e-07 31 0

0101000
+71 0 +68 0 *
Wi

0101100
+88 0 *
Ve
1.00000000888178e-07
-26.1025652685271 -4.65679853259424 53.012350941795
0 0

0101101
*
Ed
 1e-07 1 1 0
1  89 0 0 6.28318530717959
2  96 32 0 0 6.28318530717959
0

0101100
+65 0 -65 0 *
Wi

0101100
-64 0 *
Fa
0  1e-07 33 0

0101000
+66 0 +63 0 *
Ed
 1.00000003552714e-07 1 1 0
1  90 0 1 9
3  97 98CN 29 0 1 9
0

0101000
+80 0 -75 0 *
Wi

0101100
-74 0 +61 0 +79 0 -61 0 *
Fa
0  1e-07 29 0

0101000
+60 0 *
Ed
 1e-07 1 1 0
1  91 0 1 9
3  99 100CN 32 0 1 9
0

0101000
+70 0 -65 0 *
Wi

0101100
-64 0 +58 0 +69 0 -58 0 *
Fa
0  1e-07 32 0

0101000
+57 0 *
Sh

0101100
-265 0 -258 2 +247 0 -236 0 +233 2 +221 0 -219 0 +207 0 -205 0 +203 2 
-200 0 -197 0 +192 0 +187 0 +163 0 +158 0 +131 0 +129 0 +120 0 -118 0 
+115 0 +106 0 -104 0 -101 0 +93 0 +84 0 -82 0 -77 0 +72 0 -67 0 
+62 0 -59 0 -56 0 *
So

0100000
+55 0 *
Ve
1e-07
-28 -10 -8.05
0 0

0101101
*
Ve
1e-07
-28 -10 -12.05
0 0

0101101
*
Ed
 1e-07 1 1 0
1  92 0 0 4
0

0101000
-53 6 +52 6 *
Ve
1e-07
-28 10 -8.05
0 0

0101101
*
Ed
 1e-07 1 1 0
1  93 0 0 20
2  101 35 0 0 20
0

0101000
-50 6 +53 6 *
Ve
1e-07
-28 10 -12.05
0 0

0101101
*
Ed
 1e-07 1 1 0
1  94 0 0 4
0

0101000
-50 6 +48 6 *
Ed
 1e-07 1 1 0
1  95 0 0 20
2  102 36 0 0 20
0

0101000
-48 6 +52 6 *
Wi

0101100
-51 0 -49 0 +47 0 +46 0 *
Fa
0  1e-07 34 0

0111000
+45 0 *
Ve
1e-07
-12 -10 -12.05
0 0

0101101
*
Ed
 1e-07 1 1 0
1  96 0 0 16
2  103 36 0 0 16
0

0101000
-43 6 +52 6 *
Ve
1e-07
-12 -10 -8.05
0 0

0101101
*
Ed
 1e-07 1 1 0
1  97 0 0 4
0

0101000
-41 6 +43 6 *
Ed
 1e-07 1 1 0
1  98 0 0 16
2  104 35 0 0 16
0

0101000
-41 6 +53 6 *
Wi

0101100
-42 0 -40 0 +39 0 +51 0 *
Fa
0  1e-07 37 0

0111000
+38 0 *
Ve
1e-07
-12 10 -8.05
0 0

0101101
*
Ed
 1e-07 1 1 0
1  99 0 0 16
2  105 35 0 0 16
0

0101000
-36 6 +50 6 *
Ed
 1e-07 1 1 0
1  100 0 0 20
2  106 35 0 0 20
0

0101000
-36 6 +41 6 *
Wi

0101100
-49 5 -35 5 +39 5 +34 5 *
Ve
1e-07
-18.3 -6 -8.05
0 0

0101101
*
Ed
 1e-07 1 1 0
1  101 0 0 6.28318530717959
2  107 35 5 0 6.28318530717959
2  108 38 0 0 6.28318530717959
0

0101100
+32 0 -32 0 *
Wi

0101100
-31 0 *
Ve
1e-07
-18.3 6 -8.05
0 0

0101101
*
Ed
 1e-07 1 1 0
1  102 0 0 6.28318530717959
2  109 35 5 0 6.28318530717959
2  110 39 0 0 6.28318530717959
0

0101100
+29 0 -29 0 *
Wi

0101100
-28 0 *
Fa
0  1e-07 35 5

0101000
+33 0 +30 0 +27 0 *
Ve
1e-07
-12 10 -12.05
0 0

0101101
*
Ed
 1e-07 1 1 0
1  103 0 0 16
2  111 36 0 0 16
0

0101000
-25 6 +48 6 *
Ed
 1e-07 1 1 0
1  104 0 0 4
0

0101000
-36 6 +25 6 *
Wi

0101100
-24 0 -23 0 +35 0 +47 0 *
Fa
0  1e-07 40 0

0111000
+22 0 *
Ed
 1e-07 1 1 0
1  105 0 0 20
2  112 36 0 0 20
0

0101000
-25 6 +43 6 *
Wi

0101100
-46 5 -24 5 +42 5 +20 5 *
Ve
1e-07
-18.3 -6 -12.05
0 0

0101101
*
Ed
 1e-07 1 1 0
1  106 0 0 6.28318530717959
2  113 36 5 0 6.28318530717959
2  114 38 0 0 6.28318530717959
0

0101100
+18 0 -18 0 *
Wi

0101100
-17 0 *
Ve
1e-07
-18.3 6 -12.05
0 0

0101101
*
Ed
 1e-07 1 1 0
1  107 0 0 6.28318530717959
2  115 36 5 0 6.28318530717959
2  116 39 0 0 6.28318530717959
0

0101100
+15 0 -15 0 *
Wi

0101100
-14 0 *
Fa
0  1e-07 36 5

0101000
+19 0 +16 0 +13 0 *
Wi

0101100
-40 0 -34 0 +23 0 +20 0 *
Fa
0  1e-07 41 0

0111000
+11 0 *
Ed
 1e-07 1 1 0
1  108 0 0.0999999999999996 4.1
3  117 118CN 38 0 0.0999999999999996 4.1
0

0101000
+18 0 -32 0 *
Wi

0101100
-31 0 +9 0 +17 0 -9 0 *
Fa
0  1e-07 38 0

0101000
+8 0 *
Ed
 1e-07 1 1 0
1  109 0 0.0999999999999996 4.1
3  119 120CN 39 0 0.0999999999999996 4.1
0

0101000
+15 0 -29 0 *
Wi

0101100
-28 0 +6 0 +14 0 -6 0 *
Fa
0  1e-07 39 0

0101000
+5 0 *
Sh

0101100
-44 5 -37 5 +26 0 +21 5 -12 0 +10 5 -7 0 -4 0 *
So

0100000
+3 0 *
Co

1100000
+54 1 +2 4 *

+1 0 